<?xml version="1.0" encoding="UTF-8"?>
<svg width="200px" height="100px" viewBox="0 0 200 100" version="1.1" xmlns="http://www.w3.org/2000/svg" xmlns:xlink="http://www.w3.org/1999/xlink">
    <!-- Generator: Sketch 41.1 (35376) - http://www.bohemiancoding.com/sketch -->
    <title>SUNSTAR</title>
    <desc>Created with Sketch.</desc>
    <defs></defs>
    <g id="Page-1" stroke="none" stroke-width="1" fill="none" fill-rule="evenodd">
        <g id="SUNSTAR">
            <rect id="Rectangle" x="0" y="0" width="200" height="100"></rect>
            <path d="M87.6091343,99.9998333 C83.4358398,100.023013 80.1382419,97.6217165 80.1382419,97.6217165 L80.8533939,95.284809 C80.8533939,95.284809 84.2832049,97.7316078 87.8958819,97.7856949 C91.6450645,97.8406406 94.1777159,96.0368777 94.1777159,93.2664146 C94.1777159,90.7157341 91.9000467,89.8048382 89.157915,88.8389965 C85.4404978,87.6181727 80.9538415,86.2608432 80.9761631,81.9510432 C81.003636,77.4145923 85.1855156,75.0545046 90.1512295,75.0004175 C94.1236288,74.9635009 97.0022662,77.3871195 97.0022662,77.3871195 L95.8990604,79.327388 C95.8990604,79.327388 93.5123584,76.9999243 89.6816158,77.0505773 C87.1446717,77.0866354 84.7021655,78.3117519 84.7476674,80.7216341 C84.8069057,83.3822059 87.3266792,84.5566693 90.615692,85.6504313 C94.0051522,86.8077242 98.0273461,88.3796852 98.0273461,92.3744062 C98.0273461,97.5487418 93.9862647,99.9818042 87.6091343,99.9998333 L87.6091343,99.9998333 Z M7.4708924,99.9998333 C3.29845652,100.023013 0,97.6217165 0,97.6217165 L0.717727655,95.284809 C0.717727655,95.284809 4.14582158,97.7316078 7.75764006,97.7856949 C11.5068227,97.8406406 14.0403326,96.0368777 14.0403326,93.2664146 C14.0403326,90.7157341 11.7618049,89.8048382 9.01709755,88.8389965 C5.30225597,87.6181727 0.815599607,86.2608432 0.838779807,81.9510432 C0.866252636,77.4145923 5.04813231,75.0545046 10.0129876,75.0004175 C13.985387,74.9635009 16.8640243,77.3871195 16.8640243,77.3871195 L15.761677,79.327388 C15.761677,79.327388 13.374975,76.9999243 9.54337393,77.0505773 C7.00385431,77.0866354 4.56478222,78.3117519 4.6102841,80.7216341 C4.66952238,83.3822059 7.18672033,84.5566693 10.4774501,85.6504313 C13.8669104,86.8077242 17.8891042,88.3796852 17.8891042,92.3744062 C17.8891042,97.5487418 13.8488813,99.9818042 7.4708924,99.9998333 L7.4708924,99.9998333 Z M132.242179,75.46488 L122.639567,99.5173417 L125.495882,99.5173417 L129.354098,89.9962894 L137.799417,89.9962894 L141.708285,99.5173417 L145.716743,99.5173417 L135.959596,75.46488 L132.242179,75.46488 Z M137.239658,88.4157432 L129.982539,88.4157432 L133.490476,79.309359 L137.239658,88.4157432 Z M165.30487,82.0248764 C165.30487,79.309359 163.222945,77.6695745 160.298805,77.6644234 L155.18285,77.6644234 L155.18285,87.3091034 L158.599783,87.3091034 C161.705929,87.0987645 165.30487,85.8736481 165.30487,82.0248764 L165.30487,82.0248764 Z M171.705181,99.5173417 L167.345586,99.5173417 C167.345586,99.5173417 161.656135,91.2402935 160.194065,90.4152501 C159.765661,90.1782969 159.36988,90.2057698 158.663314,90.1782969 L155.18285,90.1782969 L155.18285,99.5173417 L151.283425,99.5173417 L151.283425,75.46488 L160.366629,75.46488 C166.529986,75.46488 169.031731,78.744449 168.994814,81.8969561 C168.958756,85.6229585 166.179708,87.7452345 163.605847,88.7522854 L171.705181,99.5173417 Z M122.343375,77.5965998 L122.343375,75.46488 L101.50781,75.46488 L101.50781,77.5965998 L109.906769,77.5965998 L109.906769,99.5173417 L113.971031,99.5173417 L113.971031,77.5965998 L122.343375,77.5965998 Z M73.5232998,99.5173417 L73.5232998,75.46488 L70.5759803,75.46488 L70.5759803,93.3488331 L54.4872049,75.46488 L52.368363,75.46488 L52.368363,99.5173417 L55.3568917,99.5173417 L55.3568917,81.7510067 L71.4233454,99.5173417 L73.5232998,99.5173417 Z M45.2486077,89.1034225 L45.2486077,75.46488 L42.260079,75.46488 L42.260079,88.6664328 C42.260079,95.3122818 39.3677053,97.6217165 35.0991145,97.6217165 C29.6646455,97.6217165 27.6651387,95.1800688 27.6651387,88.6664328 L27.6651387,75.46488 L23.6240573,75.46488 L23.6240573,89.1034225 C23.6240573,97.6946912 28.006832,99.9860968 34.5342044,99.9860968 C42.1965481,99.9860968 45.2486077,96.2051488 45.2486077,89.1034225 L45.2486077,89.1034225 Z" id="Fill-1" fill="#FFFFFF"></path>
        </g>
    </g>
</svg>