<?xml version="1.0" encoding="UTF-8"?>
<svg width="200px" height="100px" viewBox="0 0 200 100" version="1.1" xmlns="http://www.w3.org/2000/svg" xmlns:xlink="http://www.w3.org/1999/xlink">
    <!-- Generator: Sketch 51.3 (57544) - http://www.bohemiancoding.com/sketch -->
    <title>nochista copy</title>
    <desc>Created with Sketch.</desc>
    <defs>
        <path d="M0.483172414,15.0889828 C0.483172414,23.2505345 7.099,29.8652931 15.2578793,29.8652931 C15.5903276,29.8652931 15.9190345,29.8556724 16.244,29.8326897 C8.54263793,29.3265345 2.45167241,22.9202241 2.45167241,15.0889828 C2.45167241,7.26201724 8.54263793,0.853568966 16.244,0.345275862 C15.9190345,0.324431034 15.5903276,0.314275862 15.2578793,0.314275862 C7.099,0.314275862 0.483172414,6.93010345 0.483172414,15.0889828 Z" id="path-1"></path>
        <path d="M56.4665,0.31962069 L53.7379655,19.8485517 L58.0384138,19.8485517 L59.0876034,12.2359138 L62.233569,12.2359138 C63.2619138,12.2359138 64.230931,12.137569 65.1427586,11.9446207 C66.0519138,11.7516724 66.8616552,11.4251034 67.5687759,10.9670517 C68.2775,10.5057931 68.8702414,9.88846552 69.3475345,9.11827586 C69.826431,8.34648276 70.1487241,7.38975862 70.3138793,6.24863793 C70.4806379,5.09148276 70.4143621,4.12994828 70.1214655,3.36724138 C69.826431,2.604 69.3747931,1.99682759 68.7697586,1.5467931 C68.1625862,1.09675862 67.4212586,0.779810345 66.5484483,0.596482759 C65.674569,0.412086207 64.7328103,0.31962069 63.7210345,0.31962069 L56.4665,0.31962069 Z M60.2463621,3.95998276 L62.4537759,3.95998276 C62.8589138,3.95998276 63.2763448,3.98296552 63.7066034,4.02946552 C64.1406034,4.07703448 64.5259655,4.18018966 64.8675,4.34534483 C65.2068966,4.51210345 65.4725345,4.7462069 65.6670862,5.05086207 C65.8595,5.35177586 65.9193621,5.75156897 65.8466724,6.24863793 C65.7900172,6.7082931 65.6521207,7.09044828 65.4324483,7.39510345 C65.2106379,7.69762069 64.945,7.93653448 64.6323276,8.11184483 C64.3185862,8.28608621 63.9802586,8.40955172 63.6114655,8.48277586 C63.2437414,8.55653448 62.866931,8.59394828 62.481569,8.59394828 L59.613,8.59394828 L60.2463621,3.95998276 Z M11.2904138,0.31962069 L0.120793103,19.8485517 L4.86325862,19.8485517 L7.06906897,15.7089828 L14.6555172,15.7089828 L15.7576207,19.8485517 L20.613931,19.8485517 L14.847931,0.31962069 L11.2904138,0.31962069 Z M12.1450517,6.00117241 L13.6891724,12.0691552 L8.91944828,12.0691552 L12.1450517,6.00117241 Z M75.3182414,6.65003448 C74.243931,7.006 73.2738448,7.5452931 72.4101207,8.26203448 L74.2856207,10.5250345 C74.8003276,10.0279655 75.3572586,9.6377931 75.9542759,9.35184483 C76.5518276,9.06643103 77.191069,8.92532759 77.870931,8.92532759 C78.5882069,8.92532759 79.1766724,9.1417931 79.6368621,9.57151724 C80.0949138,10.0055172 80.2793103,10.5897069 80.1868448,11.3230172 C79.3231207,11.3230172 78.3631897,11.3502759 77.3059828,11.4074655 C76.2477069,11.4619828 75.2375345,11.6405 74.2711897,11.9446207 C73.3069828,12.2492759 72.4699828,12.7164138 71.7607241,13.3508448 C71.0536034,13.9858103 70.6163966,14.8821379 70.4512414,16.0408966 C70.3587759,16.7228966 70.4063448,17.3193793 70.5891379,17.8330172 C70.7735345,18.3493276 71.0632241,18.7795862 71.4582069,19.1291379 C71.8531897,19.4792241 72.3272759,19.7411207 72.8788621,19.9142931 C73.4309828,20.0906724 74.0189138,20.1767241 74.6437241,20.1767241 C75.4903448,20.1767241 76.3171897,20.0217241 77.1263966,19.7090517 C77.9356034,19.3969138 78.6154655,18.8816724 79.1670517,18.1633276 L79.2210345,18.1633276 L79.002431,19.8485517 L82.8074138,19.8485517 L83.7465,13.0355 C83.9116552,11.9136207 83.9618966,10.9248276 83.8966897,10.0685862 C83.8336207,9.21394828 83.607,8.49239655 83.2216379,7.90446552 C82.8352069,7.31546552 82.2702586,6.87024138 81.5257241,6.56772414 C80.7795862,6.26306897 79.8014828,6.11127586 78.5882069,6.11127586 C77.485569,6.11127586 76.3952241,6.29086207 75.3182414,6.65003448 Z M75.5127931,17.281431 C75.2829655,17.2258448 75.0857414,17.1349828 74.9200517,17.0056379 C74.7538276,16.8773621 74.6255517,16.7261034 74.5336207,16.5507931 C74.4427586,16.3765517 74.4133621,16.1611552 74.4513103,15.904069 C74.5058276,15.4422759 74.7051897,15.0841724 75.0435172,14.8270862 C75.3850517,14.5683966 75.7795,14.3770517 76.230069,14.2477069 C76.6811724,14.1183621 77.1392241,14.041931 77.6085,14.0136034 C78.0783103,13.9858103 78.4684828,13.9713793 78.7822241,13.9713793 L79.8014828,13.9713793 L79.6919138,14.8548793 C79.6368621,15.2792586 79.4978966,15.6443103 79.2771552,15.9585862 C79.0569483,16.2712586 78.7859655,16.5283448 78.4636724,16.7303793 C78.1413793,16.9329483 77.7832759,17.0884828 77.3882931,17.1985862 C76.9917069,17.3086897 76.5924483,17.3637414 76.1894483,17.3637414 C75.9692414,17.3637414 75.7426207,17.3359483 75.5127931,17.281431 Z M30.4868966,6.3052931 C30.0448793,6.43356897 29.6482931,6.59818966 29.3003448,6.80236207 C28.9507931,7.00439655 28.6397241,7.23262069 28.3633966,7.49024138 C28.0881379,7.74946552 27.8663276,8.00494828 27.7011724,8.26203448 L27.6461207,8.26203448 L27.8935862,6.44318966 L23.9218448,6.44318966 L22.0458103,19.8485517 L26.1832414,19.8485517 L27.1217931,13.1712586 C27.1768448,12.7313793 27.2591552,12.3086034 27.3692586,11.902931 C27.4793621,11.4993966 27.6461207,11.1370172 27.8663276,10.8131207 C28.0881379,10.4929655 28.3762241,10.2353448 28.7353966,10.0413276 C29.0935,9.84891379 29.5403276,9.7527069 30.0721379,9.7527069 C30.6066207,9.7527069 31.0016034,9.86174138 31.2592241,10.0814138 C31.5163103,10.3032241 31.6910862,10.5897069 31.7835517,10.9397931 C31.8754828,11.2872069 31.9032759,11.6672241 31.8658621,12.0835862 C31.8284483,12.4962069 31.7835517,12.896 31.7285,13.2835 L30.8172069,19.8485517 L34.9541034,19.8485517 L35.9755,12.4539828 C36.1037759,11.5544483 36.1582931,10.7174483 36.1406552,9.94565517 C36.1230172,9.17386207 35.9755,8.50201724 35.7002414,7.93172414 C35.4233793,7.3625 34.9818966,6.91727586 34.3747241,6.59551724 C33.7691552,6.27322414 32.9407069,6.11127586 31.8936552,6.11127586 C31.3965862,6.11127586 30.9283793,6.17594828 30.4868966,6.3052931 Z M97.5644828,6.44318966 L93.370931,15.2947586 L93.3174828,15.2947586 L91.1095345,6.44318966 L86.6417931,6.44318966 L90.6124655,19.9559828 L87.3996897,27.8444138 L91.5627759,27.8444138 L101.811483,6.44318966 L97.5644828,6.44318966 Z M49.2980172,6.44318966 L45.1044655,15.2947586 L45.0494138,15.2947586 L42.843069,6.44318966 L38.3742586,6.44318966 L42.3465345,19.9559828 L39.1316207,27.8444138 L43.2963103,27.8444138 L53.5434138,6.44318966 L49.2980172,6.44318966 Z" id="path-3"></path>
        <polygon id="path-5" points="0.0994137931 4.18553448 3.27958621 4.18553448 2.2507069 0.241051724"></polygon>
    </defs>
    <g id="nochista-copy" stroke="none" stroke-width="1" fill="none" fill-rule="evenodd">
        <g id="Group-18" transform="translate(0.000000, 69.000000)">
            <path d="M0.4836,15.2579862 C0.4836,23.4195379 7.0988931,30.0342966 15.2583069,30.0342966 C15.5902207,30.0342966 15.9183931,30.0246759 16.2438931,30.0016931 C8.54253103,29.4955379 2.4521,23.0886931 2.4521,15.2579862 C2.4521,7.43048621 8.54253103,1.02257241 16.2438931,0.51427931 C15.9183931,0.493434483 15.5902207,0.48327931 15.2583069,0.48327931 C7.0988931,0.48327931 0.4836,7.09857241 0.4836,15.2579862" id="Fill-1" fill="#FEFEFE"></path>
            <g id="Group-5" transform="translate(0.000000, 0.168950)">
                <mask id="mask-2" fill="white">
                    <use xlink:href="#path-1"></use>
                </mask>
                <g id="Clip-4"></g>
                <polygon id="Fill-3" fill="#FEFEFE" mask="url(#mask-2)" points="-5.34482759 35.6938276 22.0703966 35.6938276 22.0703966 -5.51372414 -5.34482759 -5.51372414"></polygon>
            </g>
            <path d="M94.4150431,2.62666207 L91.6865086,22.1550586 L95.9864224,22.1550586 L97.0356121,14.5429552 L100.182112,14.5429552 C101.209922,14.5429552 102.179474,14.4440759 103.090767,14.2516621 C104.000457,14.0587138 104.809664,13.7316103 105.516784,13.2740931 C106.226043,12.8128345 106.81825,12.1955069 107.296078,11.4253172 C107.774974,10.6535241 108.097267,9.6968 108.261888,8.55567931 C108.428647,7.39852414 108.362371,6.43698966 108.069474,5.67428276 C107.774974,4.9105069 107.323336,4.30386897 106.718302,3.85383448 C106.111129,3.4038 105.369802,3.08631724 104.496991,2.90352414 C103.623112,2.71912759 102.681353,2.62666207 101.669578,2.62666207 L94.4150431,2.62666207 Z M98.1943707,6.26702414 L100.402319,6.26702414 C100.806922,6.26702414 101.224353,6.2900069 101.655147,6.3365069 C102.088612,6.38354138 102.473974,6.48723103 102.815509,6.65185172 C103.15544,6.81914483 103.421078,7.05324828 103.615095,7.35790345 C103.807509,7.65881724 103.867905,8.05861034 103.794681,8.55567931 C103.738026,9.01533448 103.600664,9.39748966 103.380457,9.70161034 C103.158647,10.0046621 102.893009,10.2435759 102.580871,10.4183517 C102.266595,10.5931276 101.928802,10.7165931 101.559474,10.7892828 C101.192284,10.8635759 100.81494,10.9004552 100.429578,10.9004552 L97.5615431,10.9004552 L98.1943707,6.26702414 Z M49.2389569,2.62666207 L38.0688017,22.1550586 L42.8112672,22.1550586 L45.0176121,18.0160241 L52.6035259,18.0160241 L53.7061638,22.1550586 L58.5619397,22.1550586 L52.7964741,2.62666207 L49.2389569,2.62666207 Z M50.0935948,8.30821379 L51.637181,14.3756621 L46.8674569,14.3756621 L50.0935948,8.30821379 Z M113.266784,8.95707586 C112.19194,9.31304138 111.222388,9.85233448 110.358129,10.5690759 L112.234164,12.8320759 C112.748871,12.3350069 113.305802,11.945369 113.902819,11.6583517 C114.500371,11.3734724 115.139612,11.2329034 115.81894,11.2329034 C116.536216,11.2329034 117.125216,11.4483 117.585405,11.8785586 C118.043457,12.3125586 118.227853,12.8967483 118.135388,13.6300586 C117.271129,13.6300586 116.311198,13.6573172 115.254526,13.7139724 C114.195716,13.7690241 113.186078,13.9475414 112.219733,14.2516621 C111.254991,14.5557828 110.417991,15.0234552 109.709267,15.6578862 C109.002147,16.2923172 108.56494,17.1891793 108.399784,18.3479379 C108.307319,19.0294034 108.354353,19.6269552 108.537147,20.1400586 C108.722078,20.6558345 109.011767,21.0866276 109.406216,21.4361793 C109.801198,21.7862655 110.275819,22.0481621 110.827405,22.2213345 C111.379526,22.3977138 111.966922,22.483231 112.591733,22.483231 C113.438353,22.483231 114.265198,22.328231 115.074405,22.0155586 C115.883612,21.7034207 116.563474,21.1887138 117.115595,20.470369 L117.169043,20.470369 L116.950974,22.1550586 L120.755957,22.1550586 L121.695043,15.3425414 C121.859664,14.2206621 121.909905,13.231869 121.845233,12.3750931 C121.782164,11.5209897 121.555543,10.7989034 121.170181,10.2109724 C120.783216,9.6225069 120.218267,9.17728276 119.474267,8.87423103 C118.727595,8.57011034 117.750026,8.41778276 116.536216,8.41778276 C115.434112,8.41778276 114.343233,8.59790345 113.266784,8.95707586 Z M113.460802,19.5879379 C113.230974,19.5328862 113.03375,19.4420241 112.868595,19.3126793 C112.701836,19.1849379 112.574095,19.0326103 112.481629,18.8578345 C112.391302,18.6830586 112.361905,18.4681966 112.399319,18.2105759 C112.453836,17.7493172 112.653198,17.3912138 112.991526,17.1341276 C113.33306,16.8749034 113.728043,16.6840931 114.178078,16.5547483 C114.629716,16.424869 115.087767,16.3489724 115.557043,16.3201103 C116.026319,16.2923172 116.416491,16.2778862 116.730233,16.2778862 L117.750026,16.2778862 L117.640457,17.1613862 C117.585405,17.5857655 117.445905,17.9513517 117.225698,18.2656276 C117.005491,18.5783 116.733974,18.8353862 116.411681,19.0374207 C116.089388,19.2399897 115.731819,19.3949897 115.336836,19.5050931 C114.94025,19.6151966 114.540457,19.6707828 114.137457,19.6707828 C113.91725,19.6707828 113.690629,19.6429897 113.460802,19.5879379 Z M68.4354397,8.61233448 C67.9934224,8.74007586 67.5968362,8.90523103 67.2488879,9.10940345 C66.8993362,9.31143793 66.5882672,9.54019655 66.3114052,9.79728276 C66.0361466,10.0559724 65.8148707,10.3119897 65.6497155,10.5690759 L65.5946638,10.5690759 L65.8421293,8.74969655 L61.8698534,8.74969655 L59.9943534,22.1550586 L64.13125,22.1550586 L65.0703362,15.4783 C65.1253879,15.0384207 65.2076983,14.6156448 65.3178017,14.2094379 C65.4279052,13.8064379 65.5946638,13.4435241 65.8148707,13.1201621 C66.0361466,12.7994724 66.3242328,12.5423862 66.6839397,12.3478345 C67.0415086,12.1554207 67.4883362,12.0597483 68.020681,12.0597483 C68.5551638,12.0597483 68.9496121,12.1687828 69.2072328,12.3884552 C69.464319,12.6102655 69.6396293,12.8967483 69.7315603,13.2463 C69.8240259,13.5942483 69.8512845,13.9742655 69.8144052,14.3906276 C69.7769914,14.8032483 69.7315603,15.2030414 69.6765086,15.5900069 L68.7652155,22.1550586 L72.9021121,22.1550586 L73.9240431,14.7610241 C74.0517845,13.8614897 74.1068362,13.0244897 74.0886638,12.2526966 C74.0710259,11.480369 73.9240431,10.8090586 73.64825,10.2387655 C73.3719224,9.66954138 72.9299052,9.22431724 72.3232672,8.90202414 C71.7176983,8.58026552 70.8887155,8.41778276 69.8416638,8.41778276 C69.3445948,8.41778276 68.8769224,8.48298966 68.4354397,8.61233448 Z M135.512491,8.74969655 L131.31894,17.6023345 L131.265491,17.6023345 L129.057543,8.74969655 L124.590336,8.74969655 L128.561009,22.2630241 L125.348233,30.1509207 L129.510784,30.1509207 L139.759491,8.74969655 L135.512491,8.74969655 Z M87.2460259,8.74969655 L83.0524741,17.6023345 L82.9974224,17.6023345 L80.7916121,8.74969655 L76.3222672,8.74969655 L80.2945431,22.2630241 L77.0801638,30.1509207 L81.244319,30.1509207 L91.4919569,8.74969655 L87.2460259,8.74969655 Z" id="Fill-6" fill="#FEFEFE"></path>
            <g id="Group-10" transform="translate(37.948276, 2.306881)">
                <mask id="mask-4" fill="white">
                    <use xlink:href="#path-3"></use>
                </mask>
                <g id="Clip-9"></g>
                <polygon id="Fill-8" fill="#FEFEFE" mask="url(#mask-4)" points="-5.70774138 33.6724138 107.640017 33.6724138 107.640017 -5.50891379 -5.70774138 -5.50891379"></polygon>
            </g>
            <polygon id="Fill-11" fill="#FEFEFE" points="18.271881 16.1129448 21.4525879 16.1129448 20.4231741 12.1684621"></polygon>
            <g id="Group-15" transform="translate(18.172414, 11.927571)">
                <mask id="mask-6" fill="white">
                    <use xlink:href="#path-5"></use>
                </mask>
                <g id="Clip-14"></g>
                <polygon id="Fill-13" fill="#FEFEFE" mask="url(#mask-6)" points="-5.72912069 10.0135345 9.10865517 10.0135345 9.10865517 -5.58748276 -5.72912069 -5.58748276"></polygon>
            </g>
            <path d="M26.0669914,21.1691517 L22.8312328,21.1691517 L22.0968534,18.4791 L17.0385086,18.4791 L15.568681,21.1691517 L12.4061466,21.1691517 L19.8536293,8.47678966 L22.2245948,8.47678966 L26.0669914,21.1691517 Z M19.1994224,0.4836 C11.0384052,0.4836 4.42150862,7.09942759 4.42150862,15.2583069 C4.42150862,23.4193241 11.0384052,30.0346172 19.1994224,30.0346172 C27.3588362,30.0346172 33.9735948,23.4193241 33.9735948,15.2583069 C33.9735948,7.09942759 27.3588362,0.4836 19.1994224,0.4836 Z" id="Fill-16" fill="#FEFEFE"></path>
        </g>
    </g>
</svg>