<svg xmlns="http://www.w3.org/2000/svg" width="200" height="35" viewBox="0 0 200 35">
  <defs>
    <style>
      .cls-1 {
        fill: #fff;
        fill-rule: evenodd;
      }
    </style>
  </defs>
  <path id="logo.svg" class="cls-1" d="M13.942,32.215H0v0.242c0.316,0.328.973,0.956,0.973,3.5V63.469c0,2.547-.657,3.179-0.973,3.493v0.257H8.651V66.962c-0.32-.314-0.978-0.947-0.978-3.493V54.6h5.85c8.825,0.143,13.207-6.213,13.207-11.063,0-7.254-6.117-11.385-12.961-11.327m-1.445,19.6H7.673V35.02h4.817c4.881,0.048,7.088,3.974,7.088,8.521,0,5.309-2.543,8.259-7.255,8.271m74.381-19.6v0.242c-0.314.325-.968,0.956-0.968,3.5V67.219H80.432L62.972,40.14V67.219H58.6V66.962c0.329-.314.976-0.947,0.976-3.493V36.95c0-2.27-.615-3.781-1.7-4.493V32.215H65.58L82.333,57.547V32.215h4.373Zm87.036,0v0.242c-0.323.325-.975,0.956-0.975,3.5V67.219h-5.305L150.012,40.14V67.219h-4.38V66.962c0.334-.314.976-0.947,0.976-3.493V36.95c0-2.27-.616-3.781-1.705-4.493V32.215h7.7l16.759,25.332V32.215h4.376Zm-31.82,30.722-0.43,4.282h-21.3V66.962c0.329-.314.981-0.962,0.981-3.493V35.954c0-2.541-.652-3.169-0.981-3.5V32.215h21.14s0.316,3.322.4,4.2l-0.2.118c-4.543-2.062-13.657-1.309-13.657-1.309V48.011h5.277c2.251,0,3.978-.174,4.683-0.663h0.233V51.36h-0.233c-0.7-.486-2.432-0.656-4.683-0.656h-5.277V63.935s9.881,1.083,13.841-1.125Zm58.078,0-0.419,4.282h-21.3V66.962c0.328-.314.98-0.962,0.98-3.493V35.954c0-2.541-.652-3.169-0.98-3.5V32.215h21.135s0.317,3.322.407,4.2l-0.2.118c-4.547-2.062-13.663-1.309-13.663-1.309V48.011h5.284c2.239,0,3.975-.174,4.676-0.663h0.23V51.36h-0.23c-0.7-.486-2.437-0.656-4.676-0.656H185.96V63.935s9.879,1.083,13.846-1.125ZM115.522,37c-3.636-1.829-9.278-1.814-9.278-1.814V63.469c0,2.547.646,3.179,0.97,3.493v0.257H98.563V66.962c0.32-.314.974-0.947,0.974-3.493V35.187S93.88,35.171,90.258,37l-0.194-.124,0.46-4.662H115.26l0.453,4.662L115.522,37M56.65,66.962c-0.83-.521-1.714-1.605-2.548-4L43.511,32.215H35.437v0.242a2.226,2.226,0,0,1,.635,2.662c-0.4,1.162-9.56,27.769-9.56,27.769-0.868,2.452-1.755,3.531-2.571,4.074v0.257h4.721L33,54.6h11.41l4.345,12.614H56.65V66.962ZM33.962,51.813L38.705,38.05l4.745,13.762H33.962Z" transform="translate(0 -32.219)"/>
</svg>
