<?xml version="1.0" encoding="utf-8"?>
<!-- Generator: Adobe Illustrator 23.0.3, SVG Export Plug-In . SVG Version: 6.00 Build 0)  -->
<svg version="1.1" id="レイヤー_1" xmlns="http://www.w3.org/2000/svg" xmlns:xlink="http://www.w3.org/1999/xlink" x="0px"
	 y="0px" viewBox="0 0 200 100" style="enable-background:new 0 0 200 100;" xml:space="preserve">
<style type="text/css">
	.st0{fill-rule:evenodd;clip-rule:evenodd;fill:#FFFFFF;}
</style>
<path class="st0" d="M92.03,65c1.07,0,1.91,2.04,2.52,2.7c0,0.62-0.92,1.5-1.32,1.73c-0.29,0.12-0.58,0.24-0.87,0.36
	c-2.46,1.44-4.55,3.48-6.93,4.99c-0.24,0.25-0.48,0.49-0.71,0.74c-1.09,0.8-2.34,2.01-3.18,3.06c-0.38,0.48-0.86,0.89-1.25,1.37
	c-0.14,0.13-0.27,0.25-0.41,0.38c-0.7,1.22-1.82,2.17-2.57,3.34c-1.43,2.23-3.01,4.48-4.12,6.98c-0.64,1.42-1.14,2.93-1.73,4.4
	c-0.3,0.75-0.4,1.62-0.69,2.34c-0.37,0.94-0.29,2.32-1.09,2.8c-0.15,0.09-0.58,0.15-0.74,0.05c-0.26-0.16-1.73-1.96-1.83-2.24
	C67,97.71,67,97.44,67,97.08c0.7-0.51,0.65-1.72,0.94-2.65c0.42-1.34,0.79-2.69,1.27-3.97c0.74-1.98,1.64-3.96,2.7-5.68
	c0.5-0.81,1.11-1.63,1.58-2.44c0.68-1.2,1.49-2.44,2.42-3.41c-0.01-0.6-0.81-1.33-0.99-2.11c-0.31-1.31,0.11-3.32-0.18-4.61
	c-0.02-0.01-0.03-0.02-0.05-0.03c-0.95,0.07-2.08,0.44-2.93,0.71c-0.33,0.05-0.66,0.1-0.99,0.15c-0.98,0.23-1.95,0.49-2.98,0.69
	c-0.38,0.54-0.07,2.09-0.31,2.8c-0.5,1.52-0.39,3.46-0.69,5.19c-0.02,0.93-0.03,1.87-0.05,2.8c-0.07,0.19-0.26,0.38-0.33,0.59
	c-0.59,0.09-3.12-0.09-3.41-0.43c-0.3-0.36-0.29-1.56-0.2-2.27c0.19-1.62-0.02-3.38,0.31-4.99c0.1-0.47,0.55-2.14,0.33-2.5
	c-0.01,0-0.02,0-0.03,0c-0.8,0.09-1.63,0.51-2.37,0.69c-0.5,0.12-0.75,0.09-1.25,0.23c-0.43,0.12-1.25,0.35-1.71,0.08
	c-0.07-0.19-0.54-1.57-0.64-1.63c-0.15-0.06-1.25,0.53-1.35,0.66c0.01,0.02,0.02,0.03,0.03,0.05c1.28,0.52,2.84,2.08,3.62,3.16
	c0.28,0.39,0.93,1.03,0.59,1.71c-0.22,0.43-1.13,0.49-1.6,0.69c-0.08,0.07-0.15,0.14-0.23,0.2c-0.17,0-0.34,0-0.51,0
	c-0.31,0.09-0.66,0.32-1.07,0.33c-0.39-0.26-0.48-0.8-0.74-1.2c-0.14-0.14-0.29-0.27-0.43-0.41c-0.64-0.79-1.42-1.5-2.27-2.09
	c-0.14,0.01-0.15,0.03-0.23,0.08c-0.04,0.33-0.18,0.74-0.28,1.07c-0.01,0.31-0.02,0.63-0.03,0.94c-0.21,0.74-0.07,1.92-0.08,2.8
	c0.32,0.17,0.73,0.37,0.94,0.66c-0.05,0.22-0.1,0.44-0.15,0.66c-0.51,0.21-1.14,0.47-1.66,0.69c-0.19,0.03-0.37,0.05-0.56,0.08
	c-0.22,0.09-0.72,0.46-1.17,0.28c-0.41-0.16-1.02-0.46-1.17-0.89c-0.3-0.86-0.09-4.59,0.18-5.32c0.2-0.54,0.51-1.22,0.61-1.78
	c0.05-0.31-0.27-0.49-0.13-0.89c0.09-0.25,0.28-0.22,0.48-0.36c0.18-0.12,0.42-0.54,0.51-0.74c1.08-2.27,2.26-5.2,4.43-6.31
	c0.86-0.44,3.69-1.89,5.02-0.97c0.56,0.39,0.74,2.27,0.43,3.13c-0.09,0.27-0.44,0.72-0.33,0.99c0.01,0,0.02,0,0.03,0
	c0.51-0.07,1.08-0.28,1.5-0.43c0.68-0.25,1.25-0.22,1.96-0.43c0.7-0.21,1.65-0.49,2.37-0.69c1.51-0.43,3.13-0.52,4.53-1.07
	c0.61-0.24,1.23-0.1,1.88-0.31c0.23-0.07,0.7-0.22,0.99-0.31c0.6-0.16,1.02,0.15,1.37-0.1c0.09-0.93,0.73-1.83,1.15-2.52
	c0.17-0.02,0.2-0.1,0.33-0.13c0.53-0.12,3.25,0.27,3.49,0.43c0.12,1.24-0.68,1.87-0.97,2.85c0,0.24,0,0.48,0,0.71
	c-0.16,1.03-0.11,2.25-0.05,3.31c0.03,0.49-0.19,2.13,0.05,2.44c0.7-0.69,1.41-1.38,2.11-2.06c0.7-0.63,1.41-1.26,2.11-1.88
	c0.56-0.49,1.23-0.85,1.83-1.3c0.19-0.18,0.37-0.36,0.56-0.53c1.28-0.86,2.5-1.81,3.77-2.65c0.51-0.34,1.04-0.51,1.6-0.81
	c0.33-0.18,0.55-0.59,0.79-0.87C91.83,65.12,91.93,65.06,92.03,65z M33.24,65.59c2.29-0.01,5.91-0.36,7.28,0.59
	c0.76,0.53,0.88,1.69,1.27,2.6c0.37,0.87,0.49,2.4-0.03,3.23c-0.45,0.72-1.39,1.17-2.16,1.58c-0.74,0.39-1.5,0.93-2.27,1.32
	c-0.2,0.06-0.41,0.12-0.61,0.18c-0.34,0.13-0.74,0.45-1.07,0.59c-1.26,0.51-2.51,1.02-3.72,1.53c-0.96,0.4-1.87,0.7-2.78,1.09
	c-0.31,0.14-0.82,0.13-0.97,0.43c-0.37,0.83-0.39,1.78-0.66,2.7c-0.61,2.06-1.11,4.32-1.81,6.37c-0.18,0.53-0.35,1.13-0.43,1.63
	c-0.05,0.29,0.09,0.71-0.03,0.97c-0.12,0.06-0.18,0.17-0.25,0.28c-1.37,0.03-3.26-0.08-3.79-0.92c-0.15-0.23-0.05-0.83,0.03-1.07
	c0.25-0.83,0.47-1.71,0.71-2.6c0.22-0.82,0.49-1.78,0.76-2.57c0.18-0.5,0.15-0.92,0.31-1.43c0.39-1.25,0.85-2.58,1.07-3.97
	c0.05-0.31-0.12-0.38-0.18-0.53c-0.01-0.17-0.02-0.34-0.03-0.51c-0.11-0.31-0.27-0.58-0.28-0.99c0.09-0.11,0.19-0.22,0.28-0.33
	c0.34-0.23,0.78-0.04,0.97-0.43c0.05-0.32,0.1-0.65,0.15-0.97c0.23-0.79,0.38-1.88,0.41-2.85c-0.03-0.01-0.05-0.02-0.08-0.03
	c-0.15-0.1-1.39,0.24-1.66,0.33c-1.41,0.49-2.86,1.14-4.28,1.6c-2.61,0.86-5.13,2-7.59,3.03c-1.55,0.65-3.04,1.11-4.56,1.81
	c-0.28,0.13-0.62,0.41-0.92,0.51c-0.8,0.27-1.48,0.55-2.27,0.89c-0.68,0.3-1.22,0.64-2.22,0.64c-0.2-0.23-0.41-0.46-0.61-0.69
	c-0.21-0.39-0.16-0.8-0.36-1.22c-0.14-0.31-0.36-0.85-0.46-1.2c-0.26-0.98,0.93-1.53,1.53-1.07c0.73-0.01,2.13-0.92,2.8-1.17
	c1.25-0.47,2.43-1.12,3.67-1.58c0.8-0.3,1.58-0.52,2.37-0.89c0.27-0.13,0.67-0.41,0.97-0.51c1.14-0.38,2.17-0.87,3.23-1.27
	c0.55-0.21,1.05-0.29,1.6-0.53c0.62-0.28,1.41-0.68,2.09-0.89c1.25-0.39,2.38-0.92,3.62-1.27c0.87-0.25,1.72-0.43,2.5-0.76
	c0.6-0.26,1.38-0.27,1.99-0.48c0.13,0,0.25,0,0.38,0c0.61-0.44,2.38-0.55,3.31-0.76c0.27,0,0.54,0,0.81,0
	C31.83,65.76,32.77,65.8,33.24,65.59z M46.2,67.78c1.01-0.02,1.31,0.43,1.88,0.81c0.58,0.39,1.32,0.64,1.55,1.37
	c0.01,0.9,0.02,1.8,0.03,2.7c-0.23,1.3-0.6,2.52-0.94,3.69c-0.18,0.62-0.23,1.23-0.43,1.78c-0.01,0.2-0.02,0.41-0.03,0.61
	c-0.31,1.09-0.43,2.45-0.76,3.51c-0.15,0.47-0.1,1-0.51,1.2c-0.22,0.09-0.59,0.05-0.76-0.05c-0.51-0.3-1-0.78-1.48-1.12
	c-0.32-0.23-0.71-0.38-0.94-0.69c0.01-0.28,0.11-0.9,0.03-0.99c-0.35-0.11-1.11,0.28-1.45,0.38c-0.31,0.09-0.6,0.07-0.84,0.23
	c-0.08,0.08-0.17,0.17-0.25,0.25c-0.14,0.01-0.29,0.02-0.43,0.03c-0.35,0.15-0.55,0.88-0.76,1.2c-0.64,0.95-1.3,1.99-2.11,2.78
	c-0.28-0.03-0.56-0.07-0.84-0.1c-0.1-0.09-0.2-0.19-0.31-0.28c-0.69-0.47-1.56-0.9-2.06-1.55c0.02-0.57,0.39-0.72,0.61-1.07
	c0.64-1.03,1.22-1.99,1.86-3.03c0.08-0.08,0.17-0.17,0.25-0.25c0.66-1.26,1.51-2.35,2.24-3.51c0.68-1.08,1.19-2.18,1.94-3.18
	c0.33-0.44,0.96-1.03,1.2-1.5c0.5-0.98,1.64-2.24,2.52-2.85C45.63,67.97,45.95,67.94,46.2,67.78z M35.76,69.46
	c-0.56,0.03-1.12,0.05-1.68,0.08c-0.39,0.12-1.06,0.17-1.48,0.25c-0.18,0-0.36,0-0.53,0c-0.75,0.27-2,0.42-2.78,0.59
	c-0.43,0.09-0.78,0.07-1.07,0.28c0,0.01,0,0.02,0,0.03c0,0.02,0,0.03,0,0.05c0.03,0.03,0.05,0.05,0.08,0.08
	c0.47-0.01,0.86,0.08,1.15,0.25c0.12,0.46-0.19,2.49,0,2.65c0.32,0.08,1.72-0.71,2.11-0.84c1.84-0.63,3.77-1.4,5.32-2.37
	c0.53-0.33,1.36-0.51,1.73-0.99c-0.01-0.02-0.02-0.03-0.03-0.05C37.65,69.46,36.7,69.46,35.76,69.46z M56.74,70.12
	c-0.59,0.57-1.14,1.55-1.5,2.32c-0.09,0.18-0.53,0.9-0.2,0.89c0.03,0.02,0.05,0.03,0.08,0.05c0.59-0.32,2.25-2.09,1.71-3.26
	C56.79,70.12,56.77,70.12,56.74,70.12z M44.9,75.03c-0.26,0.25-0.66,0.7-0.69,1.15c0.01,0.02,0.02,0.03,0.03,0.05
	c0.29,0.02,0.39,0.03,0.59-0.1c0.1-0.34,0.23-0.78,0.18-1.09C44.97,75.03,44.94,75.03,44.9,75.03z"/>
</svg>
