<?xml version="1.0" encoding="UTF-8"?>
<svg width="200px" height="100px" viewBox="0 0 200 100" version="1.1" xmlns="http://www.w3.org/2000/svg" xmlns:xlink="http://www.w3.org/1999/xlink">
    <!-- Generator: Sketch 52.3 (67297) - http://www.bohemiancoding.com/sketch -->
    <title>WIRED</title>
    <desc>Created with Sketch.</desc>
    <defs>
        <polygon id="path-1" points="0 0.221787879 136.661317 0.221787879 136.661317 26 0 26"></polygon>
    </defs>
    <g id="WIRED" stroke="none" stroke-width="1" fill="none" fill-rule="evenodd">
        <g id="Group-8" transform="translate(0.000000, 74.000000)">
            <polygon id="Fill-1" fill="#FEFEFE" points="48 19.1900297 48 22 35 22 35 19.1900297 39.65625 19.1900297 39.65625 7.8050716 35 7.8050716 35 5 48 5 48 7.8050716 43.328125 7.8050716 43.328125 19.1900297"></polygon>
            <g id="Group-7">
                <mask id="mask-2" fill="white">
                    <use xlink:href="#path-1"></use>
                </mask>
                <g id="Clip-3"></g>
                <path d="M0,25.9992121 L27.3337097,25.9992121 L27.3337097,0.221787879 L0,0.221787879 L0,25.9992121 Z M25.3827654,4.22460606 L21.7757683,4.22460606 L19.2165601,18.3110909 L19.1430381,18.3110909 L16.1527419,5.25593939 C15.9759677,4.37548485 15.651346,4.16669697 14.7779208,4.16669697 L12.8197449,4.16669697 C11.9603812,4.16669697 11.6212962,4.38769697 11.4433167,5.25593939 L8.43012023,18.3110909 L8.37025806,18.3110909 L5.82229912,4.22460606 L1.95094428,4.22460606 L5.66119355,21.1419394 C5.81506745,21.8892424 6.11397654,22.0791212 6.98579472,22.0791212 L9.52009384,22.0791212 C10.3742346,22.0791212 10.6747507,21.8805758 10.8438915,21.1080606 L13.6477713,8.8510303 L13.7192845,8.8510303 L16.5356188,21.1080606 C16.7063666,21.8805758 16.9751437,22.0791212 17.8614252,22.0791212 L20.371217,22.0791212 C21.2462493,22.0791212 21.5399355,21.8805758 21.6970235,21.1419394 L25.3827654,4.22460606 Z" id="Fill-2" fill="#FEFEFE" mask="url(#mask-2)"></path>
                <path d="M54.6702317,26 L81.9934956,26 L81.9934956,0.222181818 L54.6702317,0.222181818 L54.6702317,26 Z M64.5792287,12.1896667 L64.5792287,7.24651515 L70.7578886,7.24651515 C71.6240821,7.24651515 71.8952698,7.31190909 72.0435191,7.44033333 C72.3038592,7.6680303 72.5758504,8.0619697 72.5758504,9.65112121 C72.5758504,11.2544545 72.2998416,11.7133939 72.0326716,11.9517273 C71.8864311,12.0801515 71.6240821,12.1896667 70.7578886,12.1896667 L64.5792287,12.1896667 Z M72.4103255,17.4428485 C72.4541173,19.3235152 72.5710293,20.8086667 72.7526246,21.9971818 L76.5082727,21.9971818 C76.3985924,21.0296667 76.3037771,19.4519394 76.2165953,17.1895455 C76.1117361,14.5946667 75.2507654,14.1680303 73.2837507,13.7965455 L73.2837507,13.7291818 C75.4512434,13.4128485 76.3985924,12.4433636 76.3985924,9.27451515 C76.3985924,6.66584848 75.9506305,5.72590909 75.1876891,5.00460606 C74.579827,4.41842424 73.6449326,4.225 72.2094457,4.225 L60.6853754,4.225 L60.6853754,21.9971818 L64.5792287,21.9971818 L64.5792287,15.0792121 L69.9575836,15.0792121 C71.0776891,15.0792121 71.5192229,15.1702121 71.8410323,15.4353333 C72.1953842,15.7162121 72.3697478,16.0518485 72.4103255,17.4428485 Z" id="Fill-4" fill="#FEFEFE" mask="url(#mask-2)"></path>
                <path d="M109.326,25.9992121 L136.661718,25.9992121 L136.661718,0.221787879 L109.326,0.221787879 L109.326,25.9992121 Z M128.072501,13.1162121 C128.072501,16.9370303 127.732211,17.9167576 127.022704,18.453303 C126.444572,18.8744242 125.803364,18.9772424 124.397205,18.9772424 L119.260308,18.9772424 L119.260308,7.24612121 L124.397205,7.24612121 C125.820639,7.24612121 126.414842,7.30245455 127.022704,7.75666667 C127.744264,8.29439394 128.072501,9.26387879 128.072501,13.1162121 Z M115.350786,4.22460606 L115.350786,21.9987576 L124.641877,21.9987576 C127.308757,21.9987576 128.769554,21.6268788 129.901713,20.6833939 C131.239974,19.5701212 131.891226,17.4905152 131.891226,13.1055758 C131.891226,8.70527273 131.239974,6.65363636 129.901713,5.53839394 C128.769554,4.59451515 127.308757,4.22460606 124.641877,4.22460606 L115.350786,4.22460606 Z" id="Fill-5" fill="#FEFEFE" mask="url(#mask-2)"></path>
                <polygon id="Fill-6" fill="#FEFEFE" mask="url(#mask-2)" points="87.0301941 7.15949394 87.0301941 4.22543333 103.076068 4.22543333 103.076068 9.9151 99.691244 9.9151 99.691244 7.15949394 93.1859537 7.15949394 93.1859537 11.4207364 98.3618217 11.4207364 98.3618217 14.2657667 93.1859537 14.2657667 93.1859537 19.0615848 99.8692235 19.0615848 99.8692235 15.9411909 103.270118 15.9411909 103.270118 21.9972212 87.0301941 21.9972212 87.0301941 19.0615848 89.5713232 19.0615848 89.5713232 7.15949394"></polygon>
            </g>
        </g>
    </g>
</svg>