<?xml version="1.0" encoding="UTF-8"?>
<svg width="200px" height="100px" viewBox="0 0 200 100" version="1.1" xmlns="http://www.w3.org/2000/svg" xmlns:xlink="http://www.w3.org/1999/xlink">
    <!-- Generator: Sketch 51.3 (57544) - http://www.bohemiancoding.com/sketch -->
    <title>nochista</title>
    <desc>Created with Sketch.</desc>
    <defs>
        <polygon id="path-1" points="0 41.5691771 117.779335 41.5691771 117.779335 0 0 0"></polygon>
        <polygon id="path-3" points="0 41.5691771 117.779335 41.5691771 117.779335 0 0 0"></polygon>
        <polygon id="path-5" points="0 41.5691771 117.779335 41.5691771 117.779335 0 0 0"></polygon>
        <polygon id="path-7" points="0 41.5691771 117.779335 41.5691771 117.779335 0 0 0"></polygon>
        <polygon id="path-9" points="0 41.5691771 117.779335 41.5691771 117.779335 0 0 0"></polygon>
        <polygon id="path-11" points="0 41.5691771 117.779335 41.5691771 117.779335 0 0 0"></polygon>
        <polygon id="path-13" points="0 41.5691771 117.779335 41.5691771 117.779335 0 0 0"></polygon>
        <polygon id="path-15" points="0 41.5691771 117.779335 41.5691771 117.779335 0 0 0"></polygon>
    </defs>
    <g id="nochista" stroke="none" stroke-width="1" fill="none" fill-rule="evenodd">
        <g id="style_1" transform="translate(0.000000, 58.000000)">
            <path d="M23.286235,29.3014856 C20.2579292,29.3014856 17.7929069,31.8053272 17.7929069,34.8340374 C17.7929069,37.8619388 20.2579292,40.3657802 23.286235,40.3657802 C26.3145408,40.3657802 28.7795631,37.8619388 28.7795631,34.8340374 C28.7795631,31.8053272 26.3145408,29.3014856 23.286235,29.3014856 M23.286235,41.5691771 C19.5591827,41.5691771 16.5506909,38.5606853 16.5506909,34.8340374 C16.5506909,31.106985 19.5591827,28.0976845 23.286235,28.0976845 C27.0132873,28.0976845 30.0221834,31.106985 30.0221834,34.8340374 C30.0221834,38.5606853 27.0132873,41.5691771 23.286235,41.5691771" id="Fill-2" fill="#FFFFFF" fill-rule="nonzero"></path>
            <polygon id="Fill-4" fill="#FFFFFF" fill-rule="nonzero" points="63.081165 41.5691771 63.081165 35.2208064 55.4679696 35.2208064 55.4679696 41.5691771 54.2708701 41.5691771 54.2708701 28.4825843 55.4679696 28.4825843 55.4679696 34.0910081 63.081165 34.0910081 63.081165 28.4825843 64.2782646 28.4825843 64.2782646 41.5691771"></polygon>
            <g id="Fill-6-Clipped">
                <mask id="mask-2" fill="white">
                    <use xlink:href="#path-1"></use>
                </mask>
                <g id="path-1"></g>
                <polygon id="Fill-6" fill="#FFFFFF" fill-rule="nonzero" mask="url(#mask-2)" points="72.7460599 40.7993775 73.9007593 40.7993775 73.9007593 30.791983 72.7460599 30.791983"></polygon>
            </g>
            <g id="Fill-8-Clipped">
                <mask id="mask-4" fill="white">
                    <use xlink:href="#path-3"></use>
                </mask>
                <g id="path-1"></g>
                <path d="M84.2545736,41.5691771 C82.1073547,41.5691771 81.0822984,40.3851545 80.4440556,39.0264398 L81.4497715,38.4829541 C82.0106513,39.6673811 82.8616412,40.4631995 84.2932548,40.4631995 C86.0145759,40.4631995 86.8655663,39.1040806 86.8655663,37.8618275 C86.8655663,35.0469431 81.1209797,34.289945 81.1209797,31.00962 C81.1209797,29.4758092 82.3394427,28.0976845 84.3899586,28.0976845 C85.2989706,28.0976845 86.4594119,28.4858887 87.3297427,29.7285463 L86.4400711,30.4463196 C86.0145759,29.7285463 85.2212051,29.2040663 84.3315335,29.2040663 C83.1714952,29.2040663 82.3978678,30.0002892 82.3978678,30.9707996 C82.3978678,33.3776652 88.1420514,34.3481756 88.1420514,37.7841867 C88.1420514,39.9969504 86.382049,41.5691771 84.2545736,41.5691771" id="Fill-8" fill="#FFFFFF" fill-rule="nonzero" mask="url(#mask-4)"></path>
            </g>
            <g id="Fill-9-Clipped">
                <mask id="mask-6" fill="white">
                    <use xlink:href="#path-5"></use>
                </mask>
                <g id="path-1"></g>
                <polygon id="Fill-9" fill="#FFFFFF" fill-rule="nonzero" mask="url(#mask-6)" points="98.5703311 29.6119768 98.5703311 41.5691771 97.3436609 41.5691771 97.3436609 29.6119768 93.1457486 29.6119768 93.1457486 28.4825843 102.768243 28.4825843 102.768243 29.6119768"></polygon>
            </g>
            <g id="Fill-10-Clipped">
                <mask id="mask-8" fill="white">
                    <use xlink:href="#path-7"></use>
                </mask>
                <g id="path-1"></g>
                <path d="M41.0188204,40.3657802 C37.9782876,40.3657802 35.5033126,37.8619388 35.5033126,34.833633 C35.5033126,31.8053272 37.9782876,29.3014856 41.0188204,29.3014856 C43.2071597,29.3014856 45.0970889,30.6019304 45.9878524,32.4579758 L47.3426739,32.4579758 C46.3796423,29.9092495 43.9192832,28.0976845 41.0188204,28.0976845 C37.2767199,28.0976845 34.2560811,31.106985 34.2560811,34.833633 C34.2560811,38.5606853 37.2767199,41.5691771 41.0188204,41.5691771 C43.7235913,41.5691771 46.0446925,39.9933581 47.1274941,37.7147491 L45.7121787,37.7147491 C44.7402148,39.2962291 43.0021297,40.3657802 41.0188204,40.3657802" id="Fill-10" fill="#FFFFFF" fill-rule="nonzero" mask="url(#mask-8)"></path>
            </g>
            <g id="Fill-11-Clipped">
                <mask id="mask-10" fill="white">
                    <use xlink:href="#path-9"></use>
                </mask>
                <g id="path-1"></g>
                <polygon id="Fill-11" fill="#FFFFFF" fill-rule="nonzero" mask="url(#mask-10)" points="111.686071 28.4825843 110.786397 28.4825843 105.462542 41.5691771 106.643755 41.5691771 108.274806 37.5769529 110.488848 37.5769529 111.172195 36.4475604 108.724252 36.4475604 111.236234 30.2744402 113.747825 36.4475604 112.734129 36.4475604 112.099593 37.5769529 114.198053 37.5769529 115.828713 41.5691771 117.009535 41.5691771"></polygon>
            </g>
            <g id="Fill-12-Clipped">
                <mask id="mask-12" fill="white">
                    <use xlink:href="#path-11"></use>
                </mask>
                <g id="path-1"></g>
                <polygon id="Fill-12" fill="#FFFFFF" fill-rule="nonzero" mask="url(#mask-12)" points="72.7460599 29.6372837 73.9007593 29.6372837 73.9007593 28.4825843 72.7460599 28.4825843"></polygon>
            </g>
            <g id="Fill-13-Clipped">
                <mask id="mask-14" fill="white">
                    <use xlink:href="#path-13"></use>
                </mask>
                <g id="path-1"></g>
                <polygon id="Fill-13" fill="#FFFFFF" fill-rule="nonzero" mask="url(#mask-14)" points="59.4668136 13.4175887 54.5482631 16.9355907 53.4615355 16.1586185 55.3404227 10.466296 50.4218722 6.94869456 50.8368712 5.69152151 56.916605 5.69152151 58.7954922 0 60.1381354 0 61.9494838 5.48686545 60.9844076 6.9002339 59.4668136 2.28926444 57.9028376 7.02519027 52.8418854 7.02519027 56.5374098 9.67090073 56.9402028 9.94404248 55.3725649 14.6943864 59.4668136 11.7659221 63.5614695 14.6943864 61.9970863 9.95605751 66.0917422 7.02519027 63.3254898 7.02519027 64.2360461 5.69152151 68.0967564 5.69152151 68.5121622 6.94869456 63.5932049 10.466296 65.4720921 16.1586185 64.3853645 16.9355907"></polygon>
            </g>
            <g id="Fill-1-Clipped">
                <mask id="mask-16" fill="white">
                    <use xlink:href="#path-15"></use>
                </mask>
                <g id="path-1"></g>
                <polygon id="Fill-1" fill="#FFFFFF" fill-rule="nonzero" mask="url(#mask-16)" points="9.57981466 28.4825843 9.57981466 39.563126 1.19737939 28.4825843 0 28.4825843 0 41.5691771 1.19737939 41.5691771 1.19737939 30.4886354 9.57981466 41.5691771 10.7771941 41.5691771 10.7771941 28.4825843"></polygon>
            </g>
        </g>
    </g>
</svg>