<?xml version="1.0" encoding="UTF-8"?>
<svg width="200px" height="100px" viewBox="0 0 200 100" version="1.1" xmlns="http://www.w3.org/2000/svg" xmlns:xlink="http://www.w3.org/1999/xlink">
    <!-- Generator: Sketch 51.3 (57544) - http://www.bohemiancoding.com/sketch -->
    <title>etv</title>
    <desc>Created with Sketch.</desc>
    <defs></defs>
    <g id="etv" stroke="none" stroke-width="1" fill="none" fill-rule="evenodd">
        <g id="nhk_logo" transform="translate(0.000000, 56.000000)" fill="#FFFFFF" fill-rule="nonzero">
            <path d="M30.795039,0.172409276 C29.8218929,-0.188060284 28.7271035,0.352644056 28.3621737,1.31389614 C28.3621737,1.31389614 27.4498492,3.83718282 27.328206,4.25773062 L23.00987,4.25773062 L23.6180863,2.51546124 C23.8005512,2.0348352 23.7397296,1.55420916 23.5572647,1.07358312 C23.3747998,0.592957076 22.9490484,0.292565756 22.4624753,0.112331036 C21.4893292,-0.248138524 20.3945398,0.292565756 20.02961,1.25381784 L17.1101716,9.42446052 C16.9277067,9.90508656 16.9885283,10.3857126 17.1709932,10.8663386 C17.4142798,11.3469647 17.7792096,11.6473559 18.2657826,11.8275907 C19.2389287,12.1880603 20.3337181,11.6473559 20.6986479,10.6861039 C20.6986479,10.6861039 21.4893292,8.46320844 21.7326157,7.74226938 L26.0509516,7.74226938 L25.4427353,9.48453876 C25.2602704,9.9651648 25.321092,10.4457908 25.5035569,10.9264169 C25.7468435,11.4070429 26.1117733,11.7074342 26.5983463,11.887669 C27.5714925,12.2481385 28.6662819,11.7074342 29.0312116,10.7461822 L31.8898284,2.69569596 C32.0722933,2.21506992 32.0114717,1.73444388 31.8290068,1.25381784 C31.6465419,0.713113557 31.2816121,0.352644056 30.795039,0.172409276 Z" id="Shape"></path>
            <path d="M13.7393291,0.129312359 C12.770113,-0.235704481 11.6797447,0.311820779 11.3162887,1.28519904 C11.3162887,1.28519904 10.1653445,4.57035066 9.62016036,6.03041808 L6.34905582,0.859346099 C5.92502372,0.250984679 5.2586876,-0.0531960607 4.53177547,0.00764009932 C3.80486334,0.129312359 3.19910323,0.616001519 2.95679918,1.3460352 L0.109726678,9.43724196 C-0.0720013553,9.92393112 -0.0114253443,10.4106202 0.170302688,10.8973094 C0.412606732,11.3839985 0.776062794,11.6881792 1.26067088,11.8706876 C2.22988706,12.2357045 3.32025525,11.6881792 3.68371132,10.714801 C3.68371132,10.714801 4.83465552,7.42964934 5.37983962,5.96958192 L8.65094418,11.1406539 C9.0749763,11.7490153 9.74131242,12.0531961 10.4682245,11.9923599 C11.1951367,11.9315237 11.8008968,11.4448346 12.0432008,10.714801 L14.8902733,2.56275804 C15.0720014,2.07606888 15.0114253,1.58937978 14.8296973,1.10269062 C14.5873933,0.676837619 14.2239372,0.311820779 13.7393291,0.129312359 Z" id="Shape"></path>
            <path d="M46.6262635,0.783948524 C46.0656588,-0.00793435657 44.9444494,-0.251590637 44.0723976,0.296635963 C44.0723976,0.296635963 39.9612963,2.97685504 38.0926139,4.25605048 L38.7155081,2.55045652 C38.9023763,2.06314396 38.8400869,1.57583146 38.6532187,1.0885189 C38.4663504,0.601206344 38.0303246,0.296635963 37.5320093,0.113893783 C36.5353786,-0.251590637 35.4141692,0.296635963 35.0404328,1.27126108 L32.1128303,9.43374641 C31.9259621,9.92105897 31.9882515,10.4083715 32.1751198,10.8956841 C32.4242774,11.3829966 32.7980139,11.687567 33.2963292,11.8703092 C34.2929598,12.2357936 35.4141692,11.687567 35.7879057,10.7129419 C35.7879057,10.7129419 36.7222469,8.15455097 37.0959834,6.99718366 L42.0168469,11.4439107 C42.7020305,12.1748796 43.9478188,12.1748796 44.6952918,11.5048248 C45.0690282,11.1393404 45.2558964,10.7129419 45.2558964,10.2256293 C45.2558964,9.73831679 45.0690282,9.25100423 44.7575811,8.94643385 L41.6431105,6.32712886 L46.2525271,3.28142536 C46.6885529,3.03776908 46.9377106,2.61137062 47,2.12405806 C47,1.6367455 46.8754212,1.14943294 46.6262635,0.783948524 Z" id="Shape"></path>
            <rect id="Rectangle-path" x="28" y="16" width="17" height="5"></rect>
            <path d="M48,25 L26,25 L26,30.5700326 L34.0457143,30.5700326 C33.7942857,34.7785016 32.9142857,37.5635177 30.7142857,41.1530945 L35.6171429,44 C38.2571429,39.5439741 39.4514286,35.8925082 39.7028571,30.6319218 L47.9371429,30.6319218 L47.9371429,25 L48,25 Z" id="Shape"></path>
            <polygon id="Shape" points="22 21.6120092 22 16 1 16 1 43 22 43 22 37.387991 7.37974684 37.387991 7.37974684 32.0254042 19.142405 32.0254042 19.142405 26.4133949 7.37974684 26.4133949 7.37974684 21.6120092"></polygon>
            <path d="M60.6060606,44 C61.6969698,43.6124401 62.727273,43.0956935 63.6969696,42.4497609 C66.6666666,40.5119619 68.969697,37.4114831 70.4848482,33.4712919 C71.5757574,30.6291866 72,27.9808612 72,27.0119617 L66.060606,27.0119617 C66.060606,27.0119617 66.060606,26.9473684 66.060606,26.9473684 C66.060606,27.3349282 65.757576,29.2727273 64.8484848,31.4688995 C63.7575756,34.1172249 62.2424244,36.0550237 60.3030303,37.2177035 C60.0606061,37.4114831 59.7575758,37.5406698 59.4545455,37.6698564 L59.4545455,17 L54,17 L54,43.935407 L60.6060606,43.935407 L60.6060606,44 Z" id="Shape"></path>
        </g>
    </g>
</svg>