<?xml version="1.0" encoding="utf-8"?>
<!-- Generator: Adobe Illustrator 22.0.1, SVG Export Plug-In . SVG Version: 6.00 Build 0)  -->
<svg version="1.1" id="レイヤー_1" xmlns="http://www.w3.org/2000/svg" xmlns:xlink="http://www.w3.org/1999/xlink" x="0px"
	 y="0px" viewBox="0 0 610.4 100.3" style="enable-background:new 0 0 610.4 100.3;" xml:space="preserve">
<style type="text/css">
	.st0{fill:#FFFFFF;}
</style>
<g>
	<path class="st0" d="M56.3,47.7l-2.8,10.1c-0.6,2.4,1.2,4.8,3.7,4.8h9.9c0.7,0,1.3,0.6,1.3,1.3v13.3c0,4.7-5.7,5-12.8,5
		c-20.3,0-34.1-12.5-34.1-32.2c0-19.1,14.3-31.6,32.2-31.6c8.3,0,19.5,2.4,26.7,6.3c2.6,1.4,5.7-0.3,5.7-3.3V9.5
		c0-1.5-0.8-2.8-2.1-3.4C76.1,2.1,63,0,52.6,0C23.3,0,0.4,20.6,0.4,50c0,30.8,22.3,50,53,50c10.4,0,26-2.1,34.2-6.2
		c1.3-0.6,2.1-2,2.1-3.4V48.6c0-2.1-1.7-3.9-3.9-3.9H60C58.2,44.8,56.7,46,56.3,47.7z"/>
	<path class="st0" d="M136.2,78.7l-6.3,17.1c-0.6,1.5-2,2.5-3.6,2.5H113c-2.7,0-4.6-2.7-3.6-5.2l34.5-89c0.6-1.5,2-2.5,3.6-2.5h19.6
		c1.6,0,3,1,3.6,2.5l34.8,89c1,2.5-0.9,5.3-3.6,5.3h-14.1c-1.6,0-3.1-1-3.6-2.5l-6.3-17.1c-0.2-0.5-0.7-0.8-1.2-0.8h-39.2
		C136.8,77.9,136.3,78.2,136.2,78.7z M155.9,25l-12.6,34.4c-0.3,0.8,0.3,1.7,1.2,1.7h25.2c0.9,0,1.5-0.9,1.2-1.7L158.4,25
		C157.9,23.9,156.4,23.9,155.9,25z"/>
	<path class="st0" d="M292.2,62.6V5.5c0-2.1,1.7-3.9,3.9-3.9h12.4c2.1,0,3.9,1.7,3.9,3.9v89c0,2.1-1.7,3.9-3.9,3.9h-13.9
		c-1.3,0-2.4-0.6-3.2-1.6l-42.7-59.3c-0.7-1-2.3-0.5-2.3,0.7v56.4c0,2.1-1.7,3.9-3.9,3.9h-12.4c-2.1,0-3.9-1.7-3.9-3.9v-89
		c0-2.1,1.7-3.9,3.9-3.9h15.1c1.3,0,2.5,0.6,3.2,1.7l41.3,59.9C290.6,64.3,292.2,63.8,292.2,62.6z"/>
	<path class="st0" d="M385.8,95.5l-15.5-58.8c-0.4-1.3-2.3-1.2-2.5,0.1L359.3,95c-0.3,1.9-1.9,3.3-3.7,3.3h-12.2
		c-2.3,0-4.1-2.1-3.7-4.4l12.8-89c0.3-1.9,1.9-3.3,3.7-3.3h18.5c1.7,0,3.2,1.2,3.7,2.9L395,67.8c0.3,1.3,2.1,1.3,2.4,0l16.2-63.3
		c0.4-1.7,1.9-2.9,3.7-2.9h18.4c1.9,0,3.5,1.4,3.7,3.3l13,89c0.3,2.3-1.4,4.4-3.7,4.4h-12.5c-1.9,0-3.5-1.4-3.7-3.3L424,36.8
		c-0.2-1.4-2.1-1.5-2.5-0.1l-15.6,58.8c-0.4,1.7-1.9,2.8-3.7,2.8h-12.8C387.7,98.4,386.2,97.2,385.8,95.5z"/>
	<path class="st0" d="M495.2,78.7l-6.3,17.1c-0.6,1.5-2,2.5-3.6,2.5H472c-2.7,0-4.6-2.7-3.6-5.2l34.5-89c0.6-1.5,2-2.5,3.6-2.5h19.6
		c1.6,0,3,1,3.6,2.5l34.8,89c1,2.5-0.9,5.3-3.6,5.3h-14.1c-1.6,0-3.1-1-3.6-2.5l-6.3-17.1c-0.2-0.5-0.7-0.8-1.2-0.8h-39.2
		C495.8,77.9,495.4,78.2,495.2,78.7z M514.9,25l-12.6,34.4c-0.3,0.8,0.3,1.7,1.2,1.7h25.2c0.9,0,1.5-0.9,1.2-1.7L517.4,25
		C517,23.9,515.4,23.9,514.9,25z"/>
	<g>
		<path class="st0" d="M604.6,67h-13.3c-2.1,0-3.9-1.7-3.9-3.9V5.5c0-2.1,1.7-3.9,3.9-3.9h13.3c2.1,0,3.9,1.7,3.9,3.9v57.6
			C608.5,65.3,606.7,67,604.6,67z"/>
		<circle class="st0" cx="597.9" cy="87.3" r="12.4"/>
	</g>
</g>
</svg>
