<?xml version="1.0" encoding="UTF-8" standalone="no"?>
<svg width="30px" height="30px" viewBox="0 0 30 30" version="1.1" xmlns="http://www.w3.org/2000/svg" xmlns:xlink="http://www.w3.org/1999/xlink">
    <!-- Generator: Sketch 40.3 (33839) - http://www.bohemiancoding.com/sketch -->
    <title>INSTA</title>
    <desc>Created with Sketch.</desc>
    <defs>
        <polygon id="path-1" points="0.0003 30 30 30 30 0.0002 0.0003 0.0002"></polygon>
    </defs>
    <g id="Symbols" stroke="none" stroke-width="1" fill="none" fill-rule="evenodd" opacity="0.8">
        <g id="FOTTER" transform="translate(-270.000000, -189.000000)">
            <g id="INSTA" transform="translate(270.000000, 189.000000)">
                <path d="M15.1659,10.2061242 C12.3464581,10.2061242 10.05335,12.4992323 10.05335,15.3186742 C10.05335,18.1371677 12.3464581,20.4302758 15.1659,20.4302758 C17.9853419,20.4302758 20.27845,18.1371677 20.27845,15.3186742 C20.27845,12.4992323 17.9853419,10.2061242 15.1659,10.2061242" id="Fill-1" fill="#FFFFFF"></path>
                <g id="Group-5">
                    <mask id="mask-2" fill="white">
                        <use xlink:href="#path-1"></use>
                    </mask>
                    <g id="Clip-4"></g>
                    <path d="M24.3063,8.4432 C23.0553,8.4432 22.0403,7.4292 22.0403,6.1772 C22.0403,4.9262 23.0553,3.9122 24.3063,3.9122 C25.5573,3.9122 26.5723,4.9262 26.5723,6.1772 C26.5723,7.4292 25.5573,8.4432 24.3063,8.4432 L24.3063,8.4432 Z M15.1663189,23.3452 C10.7403027,23.3452 7.1393,19.7441973 7.1393,15.3181811 C7.1393,10.8932027 10.7403027,7.2922 15.1663189,7.2922 C19.5912973,7.2922 23.1923,10.8932027 23.1923,15.3181811 C23.1923,19.7441973 19.5912973,23.3452 15.1663189,23.3452 L15.1663189,23.3452 Z M0.0003,30.0002 L30.0003,30.0002 L30.0003,0.0002 L0.0003,0.0002 L0.0003,30.0002 Z" id="Fill-3" fill="#FFFFFF" mask="url(#mask-2)"></path>
                </g>
            </g>
        </g>
    </g>
</svg>