<?xml version="1.0" encoding="utf-8"?>
<!-- Generator: Adobe Illustrator 22.0.1, SVG Export Plug-In . SVG Version: 6.00 Build 0)  -->
<svg version="1.1" id="レイヤー_1" xmlns="http://www.w3.org/2000/svg" xmlns:xlink="http://www.w3.org/1999/xlink" x="0px"
	 y="0px" viewBox="0 0 200 100" style="enable-background:new 0 0 200 100;" xml:space="preserve">
<style type="text/css">
	.st0{fill:#FFFFFF;}
</style>
<g>
	<path class="st0" d="M20,99.6V89.5c0-1-0.2-1.8-0.6-2.2c-0.4-0.4-1.1-0.7-2.2-0.7c-0.9,0-1.6,0.2-2.1,0.6c-0.4,0.4-0.7,1-0.7,2
		v10.4h-4.3V89.5c0-1-0.2-1.8-0.7-2.2c-0.4-0.4-1.2-0.7-2.2-0.7c-1,0-1.7,0.2-2.2,0.7c-0.4,0.4-0.6,1.2-0.6,2.2v10.1H0V89
		c0-2,0.7-3.5,2-4.5c1.3-1,3.1-1.4,5.3-1.4c1.1,0,2.1,0.2,2.9,0.5c0.8,0.3,1.5,0.7,2.1,1.2c0.6-0.5,1.3-0.9,2.1-1.2
		c0.8-0.3,1.7-0.5,2.8-0.5c2.2,0,4,0.5,5.3,1.4c1.3,1,2,2.4,2,4.5v10.6H20z"/>
	<path class="st0" d="M44.6,99.5c-0.2,0-0.5,0.1-0.8,0.2c-0.3,0.1-0.7,0.1-1.2,0.2c-0.5,0-1,0.1-1.7,0.1c-0.7,0-1.4,0.1-2.3,0.1
		c-1.5,0-2.9-0.2-4.1-0.5c-1.2-0.3-2.3-0.8-3.2-1.5c-0.9-0.7-1.6-1.6-2.1-2.7c-0.5-1.1-0.7-2.4-0.7-4c0-1.1,0.2-2.1,0.6-3.1
		c0.4-1,1-1.9,1.8-2.6c0.8-0.8,1.7-1.4,2.8-1.8c1.1-0.5,2.3-0.7,3.6-0.7c1,0,2,0.1,2.9,0.4c0.9,0.3,1.7,0.7,2.4,1.3
		c0.7,0.6,1.2,1.4,1.6,2.3c0.4,0.9,0.6,2,0.6,3.3c0,0.2,0,0.4,0,0.7c0,0.3,0,0.5,0,0.8h-12c0.1,0.8,0.3,1.5,0.6,2
		c0.3,0.5,0.7,1,1.3,1.3c0.5,0.3,1.2,0.5,1.9,0.7c0.8,0.1,1.6,0.2,2.6,0.2c1.5,0,2.6-0.1,3.6-0.2c0.9-0.1,1.6-0.2,1.9-0.3L44.6,99.5
		z M40.2,89.1c0-0.7-0.2-1.4-0.7-1.9c-0.5-0.5-1.2-0.8-2.3-0.8s-1.8,0.2-2.5,0.7c-0.7,0.5-1.2,1.1-1.5,2H40.2z"/>
	<path class="st0" d="M48.7,99.6v-9.2c0-2.3,0.7-4.1,2.1-5.4c1.4-1.3,3.4-1.9,5.9-1.9c0.4,0,0.7,0,0.9,0c0.3,0,0.5,0,0.7,0.1
		c0.2,0,0.4,0.1,0.6,0.1c0.2,0,0.4,0.1,0.7,0.1v3.6c-0.4-0.1-0.8-0.1-1.3-0.2c-0.4,0-0.9-0.1-1.2-0.1c-1.2,0-2.2,0.3-2.9,0.9
		c-0.7,0.6-1,1.5-1,2.6v9.4H48.7z"/>
	<path class="st0" d="M75.1,99.7c-0.5,0.1-1,0.1-1.6,0.2c-0.6,0.1-1.2,0.1-1.9,0.1c-1.5,0-2.9-0.1-4.1-0.4c-1.2-0.3-2.3-0.8-3.2-1.4
		c-0.9-0.6-1.6-1.5-2.1-2.5c-0.5-1-0.7-2.2-0.7-3.7c0-1.5,0.3-2.8,0.8-3.9c0.5-1.1,1.2-2,2.1-2.8c0.9-0.7,2-1.3,3.2-1.6
		c1.2-0.4,2.6-0.5,4.1-0.5c0.6,0,1.3,0,1.8,0.1c0.6,0.1,1.1,0.1,1.6,0.2V87c-0.4-0.1-0.8-0.2-1.3-0.2c-0.5,0-1-0.1-1.7-0.1
		c-2,0-3.5,0.4-4.5,1.2c-1,0.8-1.5,2.1-1.5,3.9c0,1.6,0.5,2.8,1.5,3.5c1,0.7,2.5,1.1,4.5,1.1c0.6,0,1.2,0,1.7-0.1
		c0.5,0,0.9-0.1,1.3-0.2V99.7z"/>
	<path class="st0" d="M94.8,99.6h-4v-2.4c-0.3,0.6-1,1.5-1.9,2c-0.6,0.4-1.7,0.8-2.8,0.8c-1.1,0-2.2-0.2-3.1-0.6
		c-0.9-0.4-1.7-0.9-2.4-1.6c-0.7-0.7-1.2-1.5-1.6-2.5c-0.4-1-0.6-2.1-0.6-3.3c0-1.3,0.2-2.5,0.6-3.6c0.4-1.1,0.9-2,1.6-2.8
		c0.7-0.8,1.6-1.4,2.6-1.9c1-0.5,2.2-0.7,3.5-0.7c1.2,0,2.3,0.2,3.3,0.5c1,0.3,1.8,0.9,2.6,1.6c0.7,0.7,1.2,1.6,1.6,2.6
		c0.4,1.1,0.6,2.3,0.6,3.7V99.6z M84,87.9c-0.7,0.8-1,2-1,3.6c0,1.6,0.3,2.7,1,3.5c0.7,0.8,1.6,1,2.7,1c1,0,2.1-0.9,2.5-1.4
		c0.8-0.9,1.2-2,1.2-3.1c0-1.6-0.3-2.8-1-3.6c-0.7-0.8-1.6-1.2-2.7-1.2C85.6,86.7,84.7,87.1,84,87.9z"/>
	<path class="st0" d="M99,99.6v-9.2c0-2.3,0.7-4.1,2.1-5.4c1.4-1.3,3.4-1.9,5.9-1.9c0.4,0,0.7,0,0.9,0c0.3,0,0.5,0,0.7,0.1
		c0.2,0,0.4,0.1,0.6,0.1c0.2,0,0.4,0.1,0.7,0.1v3.6c-0.4-0.1-0.8-0.1-1.3-0.2c-0.4,0-0.9-0.1-1.2-0.1c-1.2,0-2.2,0.3-2.9,0.9
		c-0.7,0.6-1,1.5-1,2.6v9.4H99z"/>
	<path class="st0" d="M115.4,81.7c-0.8,0-1.4-0.3-1.8-0.8c-0.5-0.5-0.7-1.2-0.7-2c0-0.8,0.2-1.4,0.7-2c0.5-0.5,1.1-0.8,1.9-0.8
		c0.8,0,1.4,0.3,1.8,0.8c0.5,0.5,0.7,1.2,0.7,2c0,0.8-0.2,1.5-0.7,2C116.8,81.4,116.1,81.7,115.4,81.7z M113,99.6V83.5h4.6v16.1H113
		z"/>
</g>
</svg>
