<?xml version="1.0" encoding="UTF-8"?>
<svg width="200px" height="100px" viewBox="0 0 200 100" version="1.1" xmlns="http://www.w3.org/2000/svg" xmlns:xlink="http://www.w3.org/1999/xlink">
    <!-- Generator: Sketch 41.1 (35376) - http://www.bohemiancoding.com/sketch -->
    <title>NARITA</title>
    <desc>Created with Sketch.</desc>
    <defs>
        <polygon id="path-1" points="108.766718 27.9952402 108.766718 0.000185869565 0.000124009324 0.000185869565 0.000124009324 27.9952402 108.766718 27.9952402"></polygon>
        <polygon id="path-3" points="0.528217716 5.57608696 96.1759893 5.57608696 96.1759893 0.527497826 0.528217716 0.527497826"></polygon>
    </defs>
    <g id="Page-1" stroke="none" stroke-width="1" fill="none" fill-rule="evenodd">
        <g id="NARITA">
            <rect id="Rectangle" x="0" y="0" width="200" height="100"></rect>
            <g id="Page-1" transform="translate(0.000000, 62.000000)">
                <g id="Group-3">
                    <mask id="mask-2" fill="white">
                        <use xlink:href="#path-1"></use>
                    </mask>
                    <g id="Clip-2"></g>
                    <path d="M83.9798583,24.0151533 C83.0807907,21.8268489 82.3578163,20.0251533 82.3720774,20.0115228 C82.4210611,19.9669141 93.4907534,19.7066967 93.525476,19.7494467 C93.5446974,19.7729902 94.2478303,21.4693598 95.0886135,23.5207402 C95.9293967,25.5715011 96.6870937,27.4171859 96.7726601,27.622262 L96.9270517,27.9952402 L91.2709865,27.9946207 L85.6143012,27.9940011 L83.9798583,24.0151533 Z M52.9800075,27.7951207 C52.9384643,27.6842185 52.48211,26.5262511 51.9662312,25.2214467 L51.0287207,22.8497511 L52.016455,22.668838 C53.5262685,22.3918924 56.5756578,21.9476641 58.7452009,21.6893054 C59.8191217,21.5610554 60.9104037,21.4284685 61.1714434,21.3937728 L61.645159,21.3305772 L62.3067487,22.9420663 C62.6713361,23.8280446 63.0005809,24.5516967 63.0390238,24.549838 C63.0774667,24.5479793 63.4705762,23.7673272 63.9126695,22.8150554 C64.3547627,21.8627837 64.7677138,21.0660228 64.8309585,21.0449576 C65.0213128,20.981762 69.9494434,20.6224141 69.9959469,20.6688815 C70.0195086,20.692425 69.2518909,22.3379902 68.2895786,24.3249359 L66.5410471,27.9376207 L59.7980401,27.9673598 C53.4543431,27.9952402 53.0506928,27.9853272 52.9800075,27.7951207 L52.9800075,27.7951207 Z M79.773462,13.624425 C79.6854154,13.4193489 78.9841427,11.7805989 78.2146648,9.98200109 C77.445807,8.18340326 76.7798769,6.67476196 76.7352336,6.6295337 C76.6905902,6.58430543 75.9000308,8.18526196 74.9792615,10.1864576 L73.3038956,13.8257837 L75.7270378,13.8865011 C77.060138,13.9199576 78.5519702,13.9583707 79.041807,13.9726207 L79.933434,13.9974033 L79.773462,13.624425 Z M41.17742,17.0952293 C42.8180634,16.6764033 46.297765,15.9446967 47.4640727,15.7730772 C47.7641753,15.7284685 48.0097138,15.643588 48.0097138,15.5834902 C48.0097138,15.3288489 44.1803058,6.53474022 44.1059002,6.61900109 C43.9905716,6.75034891 39.0525203,17.4756424 39.0531403,17.5952185 C39.0531403,17.6491207 39.1436671,17.6577946 39.2540354,17.614425 C39.3644037,17.5704359 40.2299888,17.3374793 41.17742,17.0952293 L41.17742,17.0952293 Z M1.27617995,14.8678924 L1.27617995,1.74054457 L0.638151981,0.899175 L0.000124009324,0.0571858696 L3.79604942,0.0274467391 C5.88374639,0.0107184783 9.29834312,0.0107184783 11.3835599,0.0274467391 L15.1763851,0.0571858696 L17.6187487,5.79435978 C18.9617697,8.94918587 21.1424737,14.0736098 22.4644131,17.1813489 C23.7863524,20.289088 24.9073967,22.8324033 24.9563804,22.8324033 C25.0047441,22.8324033 25.0450471,17.6949685 25.0450471,11.4162946 L25.0450471,0.000185869565 L27.3404597,0.000185869565 L29.6364923,0.000185869565 L29.6656345,13.154175 L29.6953967,26.3087837 L32.7268047,19.9520446 C34.39411,16.4564576 37.0448093,10.9008163 38.6172476,7.60596848 L41.4762825,1.61601196 L40.8965389,0.878729348 C40.5772149,0.473533696 40.3161753,0.109848913 40.3161753,0.0708163043 C40.3161753,0.0317836957 43.1466881,0.000185869565 46.6053082,0.000185869565 L52.894441,0.000185869565 L54.2926462,3.41337065 C58.1356951,12.7973054 58.7086182,14.1770772 58.799765,14.2687728 C58.8549492,14.3245337 60.0200168,14.3078054 61.4628653,14.2297402 C62.8734713,14.1541533 64.9518676,14.0575011 66.0815925,14.0159902 L68.135807,13.9404033 L70.8478909,8.26084891 C72.339103,5.13700109 73.6573221,2.36258804 73.7769911,2.09493587 L73.9933874,1.60795761 L73.3981427,0.832881522 L72.8022779,0.0571858696 L79.0864503,0.0274467391 C82.5432103,0.0113380435 85.4047254,0.0373597826 85.4462685,0.0850663043 C85.4878117,0.132772826 85.9119235,1.127175 86.3887394,2.29443587 C88.7697184,8.123925 91.3292709,14.2929359 91.3956159,14.3604685 C91.4365389,14.4019793 92.3225855,14.4949141 93.3648839,14.5661641 C99.071173,14.9583489 108.321028,15.9279685 108.537425,16.1572076 C108.577728,16.1999576 108.645313,16.3511315 108.688716,16.493012 L108.766842,16.7513707 L104.07991,16.7526098 C89.6365436,16.7569467 74.1173967,17.4223598 63.8550051,18.4774793 C49.0823944,19.9972728 40.1413221,22.4749141 37.1049538,25.8905772 C36.6008559,26.4574793 36.0707161,27.4320554 36.0688559,27.7951207 C36.0676159,27.9859467 35.5318956,27.9946207 25.9465949,27.9673598 L15.8255739,27.9376207 L10.8515599,16.3498924 L5.87692587,4.76154457 L5.87320559,16.3783924 L5.86948531,27.9952402 L3.57283263,27.9952402 L1.27617995,27.9952402 L1.27617995,14.8678924 Z" id="Fill-1" fill="#FFFFFF" mask="url(#mask-2)"></path>
                </g>
                <g id="Group-6" transform="translate(0.620047, 31.597826)">
                    <mask id="mask-4" fill="white">
                        <use xlink:href="#path-3"></use>
                    </mask>
                    <g id="Clip-5"></g>
                    <path d="M92.820297,3.48220435 L92.7886746,1.50331304 L91.6694904,1.47047609 L90.5496862,1.43763913 L90.5496862,1.03987826 L90.5496862,0.642736957 L93.3628378,0.642736957 L96.1759893,0.642736957 L96.1759893,1.04421522 L96.1759893,1.44569348 L95.0853273,1.44569348 L93.9946653,1.44569348 L93.9946653,3.45370435 L93.9946653,5.46109565 L93.4229823,5.46109565 L92.8519193,5.46109565 L92.820297,3.48220435 Z M87.7712573,2.68482391 C87.9597515,2.49585652 87.9448704,1.73317174 87.7489357,1.57084565 C87.6429077,1.48224783 87.1332294,1.4487913 86.2279613,1.47047609 L84.8663389,1.50331304 L84.8303762,2.00392174 C84.7708517,2.83042174 84.7565907,2.82236739 86.2750848,2.82236739 C87.1784928,2.82236739 87.6794904,2.77651957 87.7712573,2.68482391 L87.7712573,2.68482391 Z M83.7750569,3.05222609 L83.7750569,0.642736957 L86.1684368,0.642736957 C89.0900965,0.642736957 88.9425254,0.561573913 88.9425254,2.15757391 C88.9425254,3.4437913 88.8786606,3.53858478 87.9504508,3.62532391 L87.3378448,3.68294348 L88.3987445,4.54351957 L89.4590242,5.40409565 L88.6721851,5.43817174 L87.885966,5.47224783 L86.8672294,4.54228043 C85.8894159,3.64886739 85.8292713,3.61355217 85.3574159,3.64762826 L84.8663389,3.68294348 L84.8322364,4.57201957 L84.7987538,5.46109565 L84.2872154,5.46109565 L83.7750569,5.46109565 L83.7750569,3.05222609 Z M79.6418261,2.99460652 L79.6418261,1.44569348 L77.804628,1.44569348 L75.9674298,1.44569348 L75.9674298,2.99460652 L75.9674298,4.54351957 L77.804628,4.54351957 L79.6418261,4.54351957 L79.6418261,2.99460652 Z M75.0485207,5.23185652 C74.8370848,5.02058478 74.8191035,4.84958478 74.8191035,3.05222609 C74.8191035,1.25424783 74.8370848,1.08324783 75.0485207,0.871976087 C75.264297,0.656367391 75.4310895,0.642736957 77.804628,0.642736957 C81.049952,0.642736957 80.7895324,0.434563043 80.7895324,3.03178043 C80.7895324,5.65192174 81.0263902,5.46109565 77.7680452,5.46109565 C75.4310895,5.46109565 75.264297,5.44746522 75.0485207,5.23185652 L75.0485207,5.23185652 Z M71.4677515,2.14518261 C71.4913133,1.8192913 71.4503902,1.60678043 71.3530429,1.54482391 C71.2699566,1.49216087 70.5947259,1.44817174 69.8531501,1.44755217 L68.5039287,1.44569348 L68.5039287,2.08012826 L68.5039287,2.71456304 L69.9678587,2.68234565 L71.4317888,2.65012826 L71.4677515,2.14518261 Z M67.3556023,3.05222609 L67.3556023,0.642736957 L69.758283,0.642736957 L72.1615837,0.642736957 L72.3996816,0.945084783 C72.5869357,1.18361739 72.6371594,1.41161739 72.6371594,2.02746522 C72.6371594,3.51566087 72.4623063,3.62532391 70.0943483,3.62532391 L68.5039287,3.62532391 L68.5039287,4.54351957 L68.5039287,5.46109565 L67.9297655,5.46109565 L67.3556023,5.46109565 L67.3556023,3.05222609 Z M63.2000499,2.72385652 C63.2998774,2.66066087 63.3383203,2.43823696 63.3147585,2.06587826 L63.2794159,1.50331304 L61.8154858,1.47109565 L60.3515557,1.43887826 L60.3515557,2.13093261 L60.3515557,2.82236739 L61.7001571,2.8205087 C62.4423529,2.81988913 63.1175837,2.7759 63.2000499,2.72385652 L63.2000499,2.72385652 Z M59.2032294,3.05222609 L59.2032294,0.642736957 L61.6145907,0.642736957 C64.5870942,0.642736957 64.4847865,0.590073913 64.4847865,2.11420435 C64.4847865,3.35147609 64.3161338,3.58938913 63.3941245,3.6470087 L62.8199613,3.68294348 L63.879621,4.54351957 L64.9399007,5.40409565 L64.1270196,5.43817174 L63.3147585,5.47162826 L62.3524462,4.54847609 C61.4384974,3.67241087 61.3640918,3.62532391 60.8705347,3.62532391 L60.3515557,3.62532391 L60.3515557,4.54351957 L60.3515557,5.46109565 L59.7773925,5.46109565 L59.2032294,5.46109565 L59.2032294,3.05222609 Z M50.4766932,3.45556304 C50.4766932,3.32421522 49.6154485,1.67493261 49.5466233,1.67493261 C49.4883389,1.67493261 48.7461431,2.96920435 48.5433879,3.42458478 C48.5223063,3.4722913 48.9488984,3.51070435 49.4908191,3.51070435 C50.0327399,3.51070435 50.4766932,3.48592174 50.4766932,3.45556304 L50.4766932,3.45556304 Z M46.3428424,5.39356304 C46.3428424,5.35638913 46.9418075,4.26967174 47.6740825,2.97849783 L49.0047026,0.630965217 L49.5918867,0.66566087 L50.1790709,0.699736957 L51.1103809,2.30626957 C51.6225394,3.18976957 52.2363855,4.26099783 52.4744834,4.68663913 L52.907276,5.46109565 L52.2711082,5.46109565 C51.6380406,5.46109565 51.6324601,5.45861739 51.3317375,4.94499783 L51.0285347,4.4289 L49.4877189,4.4289 L47.9475231,4.4289 L47.6964042,4.94499783 C47.4508657,5.45056304 47.4335044,5.46109565 46.8940639,5.46109565 C46.5908611,5.46109565 46.3428424,5.43073696 46.3428424,5.39356304 L46.3428424,5.39356304 Z M38.0391781,2.59498696 C37.7750382,2.09128043 37.53322,1.67803043 37.5015977,1.67741087 C37.4699753,1.67617174 37.2207166,2.08818261 36.947896,2.59312826 L36.4524788,3.51070435 L37.4860965,3.51070435 L38.5190942,3.51070435 L38.0391781,2.59498696 Z M34.2860359,5.40781304 C34.2860359,5.37807391 34.886241,4.29383478 35.6197562,2.99832391 L36.9534765,0.642736957 L37.5431408,0.643356522 L38.1328051,0.643976087 L39.4535044,2.95681304 C40.179579,4.22878043 40.790945,5.3124 40.8120266,5.36506304 C40.8331082,5.41834565 40.5658681,5.46109565 40.2180219,5.46109565 C39.5923949,5.46109565 39.5824741,5.45613913 39.3164741,4.97349783 L39.0473739,4.4859 L37.4984974,4.45430217 L35.949621,4.42270435 L35.6656396,4.9419 C35.3903389,5.44560652 35.3655371,5.46109565 34.8341571,5.46109565 C34.5328145,5.46109565 34.2860359,5.43693261 34.2860359,5.40781304 L34.2860359,5.40781304 Z M30.496931,3.45370435 L30.496931,1.44569348 L29.406269,1.44569348 L28.315607,1.44569348 L28.315607,1.04421522 L28.315607,0.642736957 L31.0710942,0.642736957 L33.8272014,0.642736957 L33.8272014,1.04421522 L33.8272014,1.44569348 L32.7359193,1.44569348 L31.6452573,1.44569348 L31.6452573,3.45370435 L31.6452573,5.46109565 L31.0710942,5.46109565 L30.496931,5.46109565 L30.496931,3.45370435 Z M21.014558,2.75297609 C21.1453879,2.7027913 21.1962317,2.52869348 21.1962317,2.13403043 C21.1962317,1.73936739 21.1453879,1.56526957 21.014558,1.51508478 C20.9147305,1.4772913 20.24322,1.44569348 19.5221058,1.44569348 L18.2113273,1.44569348 L18.2113273,2.13403043 L18.2113273,2.82236739 L19.5221058,2.82236739 C20.24322,2.82236739 20.9147305,2.79138913 21.014558,2.75297609 L21.014558,2.75297609 Z M17.0630009,3.05222609 L17.0630009,0.642736957 L19.4743622,0.642736957 C22.4344648,0.642736957 22.344558,0.598128261 22.344558,2.06401957 C22.344558,3.29695435 22.1864462,3.53176957 21.2960592,3.62098696 L20.6797329,3.68294348 L21.7338121,4.54351957 L22.7872713,5.40409565 L21.984311,5.43817174 L21.1807305,5.47162826 L20.2047772,4.54847609 C19.2864881,3.67984565 19.1990615,3.62532391 18.7203855,3.62532391 L18.2113273,3.62532391 L18.2113273,4.54351957 L18.2113273,5.46109565 L17.6371641,5.46109565 L17.0630009,5.46109565 L17.0630009,3.05222609 Z M12.1044881,2.59312826 C11.8316676,2.08818261 11.5830289,1.67617174 11.5514065,1.67741087 C11.5197841,1.67865 11.2742457,2.0919 11.0057655,2.59498696 L10.5177888,3.51070435 L11.5594671,3.51070435 L12.6005254,3.51070435 L12.1044881,2.59312826 Z M8.36746713,5.37559565 C8.39164895,5.32788913 9.00053473,4.24365 9.72040886,2.96610652 L11.0287072,0.642736957 L11.610311,0.642736957 L12.1912946,0.642736957 L13.5361758,2.99274783 C14.2758914,4.28578043 14.8810569,5.37001957 14.8810569,5.40223696 C14.8810569,5.43507391 14.5964555,5.46109565 14.2479893,5.46109565 L13.6149217,5.46109565 L13.3638028,4.94499783 L13.113304,4.4289 L11.5514065,4.4289 L9.98950909,4.4289 L9.73839021,4.94499783 C9.48975152,5.45613913 9.48169091,5.46109565 8.90504755,5.46109565 C8.58448345,5.46109565 8.34266527,5.42268261 8.36746713,5.37559565 L8.36746713,5.37559565 Z M0.528217716,3.05222609 L0.528217716,0.642736957 L0.921947319,0.642736957 C1.26049277,0.642736957 1.5866373,0.869497826 3.24712214,2.25918261 L5.17856737,3.87624783 L5.21018974,2.25918261 L5.24243217,0.642736957 L5.69816643,0.642736957 L6.15452075,0.642736957 L6.15452075,3.05222609 L6.15452075,5.46109565 L5.76947179,5.46109565 C5.44084709,5.46109565 5.09548112,5.21698696 3.41577483,3.79880217 L1.44650676,2.13588913 L1.44650676,3.79880217 L1.44650676,5.46109565 L0.987672261,5.46109565 L0.528217716,5.46109565 L0.528217716,3.05222609 Z M54.9546699,3.05222609 L54.9546699,0.527497826 L55.5858774,0.527497826 L56.2177049,0.527497826 L56.2177049,3.05222609 L56.2177049,5.57633478 L55.5858774,5.57633478 L54.9546699,5.57633478 L54.9546699,3.05222609 Z M25.1006653,3.05222609 L25.1006653,0.527497826 L25.7318727,0.527497826 L26.3637002,0.527497826 L26.3637002,3.05222609 L26.3637002,5.57633478 L25.7318727,5.57633478 L25.1006653,5.57633478 L25.1006653,3.05222609 Z" id="Fill-4" fill="#FFFFFF" mask="url(#mask-4)"></path>
                </g>
            </g>
        </g>
    </g>
</svg>