<?xml version="1.0" encoding="UTF-8"?>
<svg width="200px" height="100px" viewBox="0 0 200 100" version="1.1" xmlns="http://www.w3.org/2000/svg" xmlns:xlink="http://www.w3.org/1999/xlink">
    <!-- Generator: Sketch 51.3 (57544) - http://www.bohemiancoding.com/sketch -->
    <title>slack</title>
    <desc>Created with Sketch.</desc>
    <defs></defs>
    <g id="slack" stroke="none" stroke-width="1" fill="none" fill-rule="evenodd">
        <g id="Slack_Monochrome_White" transform="translate(0.000000, 67.000000)" fill="#FFFFFF" fill-rule="nonzero">
            <g id="Group" transform="translate(37.000000, 0.000000)">
                <path d="M12.4909808,8.83032839 C13.4368997,9.25318919 13.5096627,9.57655333 12.7577784,11.0192549 C12.0058941,12.5117047 11.8118595,12.5863272 10.8901949,12.2132148 C9.72598696,11.6908573 8.2222184,11.3177448 7.25204514,11.3177448 C5.67551359,11.3177448 4.608323,11.8898506 4.608323,12.7853205 C4.608323,15.6955978 13.679443,14.1285254 13.679443,20.3470666 C13.679443,23.4812113 11.0599752,25.5706411 7.13077348,25.5706411 C5.0691553,25.5706411 2.52245048,24.8741645 0.751884279,23.9538204 C-0.121271658,23.5060854 -0.169780321,23.2324696 0.582103958,21.7400198 C1.23697091,20.421689 1.45525989,20.2973182 2.40117883,20.6953049 C3.90494738,21.3669073 5.79678525,21.8892647 7.08226482,21.8892647 C8.53752471,21.8892647 9.48344364,21.2922848 9.48344364,20.3968149 C9.48344364,17.5611601 0.242543316,18.904365 0.242543316,12.8848172 C0.242543316,9.67604999 2.83775679,7.53687184 6.74270418,7.53687184 C8.58603338,7.51199768 10.8901949,8.08410346 12.4909808,8.83032839 Z" id="Shape"></path>
                <path d="M19.8157889,1.44270154 L19.8157889,24.6254228 C19.8157889,24.9736611 19.4519739,25.3467736 18.942633,25.3467736 L16.5657085,25.3467736 C16.0563675,25.3467736 15.6925525,24.9736611 15.6925525,24.6254228 L15.6925525,1.44270154 C15.6925525,0.298489974 16.0078588,0.198993316 17.7541707,0.198993316 C19.7430259,0.174119151 19.8157889,0.323364138 19.8157889,1.44270154 Z" id="Shape"></path>
                <path d="M36.721058,14.4767637 L36.721058,24.4513037 C36.721058,24.9736611 36.357243,25.3467736 35.8479021,25.3467736 L33.4952319,25.3467736 C32.9616366,25.3467736 32.5735673,24.948787 32.622076,24.4015554 L32.6463303,23.3319663 C31.3608507,24.7746678 29.5417759,25.5457669 27.722701,25.5457669 C24.1815686,25.5457669 21.8046441,23.4314629 21.8046441,20.2973182 C21.8046441,16.9641802 24.4968749,14.7006312 28.5230939,14.7006312 C30.0511168,14.7006312 31.457868,14.974247 32.5978216,15.4717303 L32.5978216,14.3275187 C32.5978216,12.4868306 31.1910704,11.3923673 28.7898916,11.3923673 C27.6741923,11.3923673 26.2916954,11.8401023 25.2002505,12.5117047 C24.3513489,13.009188 24.1573142,12.9594397 23.2356496,11.5664865 C22.3382394,10.1735333 22.3624937,9.89991747 23.2356496,9.32781168 C24.8849442,8.23334845 27.140597,7.53687184 29.2022152,7.53687184 C33.8105382,7.51199768 36.721058,10.0989108 36.721058,14.4767637 Z M25.7581001,20.2475699 C25.7581001,21.4415298 26.7282734,22.2375031 28.2320419,22.2375031 C30.0268625,22.2375031 31.6519027,21.3420331 32.5978216,19.8495833 L32.5978216,18.2825109 C31.6519027,17.9093984 30.4876948,17.7104051 29.4690129,17.7104051 C27.2376144,17.7104051 25.7581001,18.7799942 25.7581001,20.2475699 Z" id="Shape"></path>
                <path d="M52.8501885,8.85520256 C53.7233444,9.37756001 53.7475988,9.65117582 52.8016798,11.1436257 C51.9042696,12.5614531 51.7587436,12.6360756 50.8128246,12.1385923 C50.0851947,11.7406056 48.9452411,11.4172415 47.9750678,11.4172415 C44.9917851,11.4172415 43.0029299,13.4320488 43.0029299,16.4666969 C43.0029299,19.6257158 44.9917851,21.7400198 47.9750678,21.7400198 C49.0180041,21.7400198 50.3034837,21.3420331 51.1523853,20.8445498 C52.0255412,20.3221924 52.1953215,20.3719407 53.1169861,21.7400198 C53.9416334,23.0086022 53.9173791,23.3070921 53.1897491,23.8543237 C51.8557609,24.799542 49.7698884,25.5208928 47.9265592,25.5208928 C42.4208259,25.5208928 38.7341675,21.8892647 38.7341675,16.4666969 C38.7341675,11.0690032 42.4208259,7.48712351 47.9750678,7.48712351 C49.6243624,7.51199768 51.6132176,8.10897762 52.8501885,8.85520256 Z" id="Shape"></path>
                <path d="M70.8469025,23.1578471 C71.5260238,24.0533171 71.2592262,24.3766812 69.5371686,25.0234095 C67.7908567,25.6701378 67.5483134,25.6452636 66.9177008,24.799542 L61.9940715,18.0586434 L59.7869273,20.2475699 L59.7869273,24.6254228 C59.7869273,24.9736611 59.4231123,25.3467736 58.9137714,25.3467736 L56.5125926,25.3467736 C56.0032516,25.3467736 55.6394366,24.9736611 55.6394366,24.6254228 L55.6394366,1.44270154 C55.6394366,0.298489974 55.9547429,0.198993316 57.7010548,0.198993316 C59.68991,0.198993316 59.762673,0.348238303 59.762673,1.44270154 L59.762673,14.6260087 L66.5053772,7.9846068 C67.2572614,7.26325603 67.6695851,7.31300436 68.979319,8.20847428 C70.4345789,9.1785667 70.5558505,9.45218251 69.8524749,10.1486591 L64.8318283,15.1732403 L70.8469025,23.1578471 Z" id="Shape"></path>
            </g>
            <g id="Group">
                <rect id="Rectangle-path" transform="translate(15.494846, 15.520085) rotate(-18.518296) translate(-15.494846, -15.520085) " x="13.3200021" y="13.4193832" width="4.34968757" height="4.20140277"></rect>
                <g>
                    <rect id="Rectangle-path" transform="translate(15.494846, 15.520085) rotate(-18.518296) translate(-15.494846, -15.520085) " x="13.3200021" y="13.4193832" width="4.34968757" height="4.20140277"></rect>
                    <path d="M29.6576577,11.2451952 C26.4694595,0.617867868 21.8725225,-1.8536036 11.2451952,1.33459459 C0.617867868,4.52279279 -1.8536036,9.11972973 1.33459459,19.7470571 C4.52279279,30.3743844 9.11972973,32.8458559 19.7470571,29.6576577 C30.3743844,26.4694595 32.8458559,21.8725225 29.6576577,11.2451952 Z M24.2945646,18.1406006 L22.2926727,18.8078979 L22.9846847,20.8839339 C23.2565465,21.7242342 22.8116817,22.6386787 21.9713814,22.9105405 C21.7983784,22.95997 21.6006607,23.0093994 21.4276577,22.9846847 C20.7850751,22.95997 20.1672072,22.5398198 19.9447748,21.8972372 L19.2527628,19.8212012 L15.1254054,21.2052252 L15.8174174,23.2812613 C16.0892793,24.1215616 15.6444144,25.036006 14.8041141,25.3078679 C14.6311111,25.3572973 14.4333934,25.4067267 14.2603904,25.382012 C13.6178078,25.3572973 12.9999399,24.9371471 12.7775075,24.2945646 L12.0854955,22.2185285 L10.0836036,22.8858258 C9.9106006,22.9352553 9.71288288,22.9846847 9.53987988,22.95997 C8.8972973,22.9352553 8.27942943,22.5151051 8.056997,21.8725225 C7.78513514,21.0322222 8.23,20.1177778 9.0703003,19.8459159 L11.0721922,19.1786186 L9.7375976,15.1995495 L7.73570571,15.8668468 C7.5627027,15.9162763 7.36498498,15.9657057 7.19198198,15.940991 C6.5493994,15.9162763 5.93153153,15.4961261 5.7090991,14.8535435 C5.43723724,14.0132432 5.8821021,13.0987988 6.7224024,12.8269369 L8.72429429,12.1596396 L8.03228228,10.0836036 C7.76042042,9.2433033 8.20528529,8.32885886 9.04558559,8.056997 C9.88588589,7.78513514 10.8003303,8.23 11.0721922,9.0703003 L11.7642042,11.1463363 L15.8915616,9.76231231 L15.1995495,7.68627628 C14.9276877,6.84597598 15.3725526,5.93153153 16.2128529,5.65966967 C17.0531532,5.38780781 17.9675976,5.83267267 18.2394595,6.67297297 L18.9314715,8.74900901 L20.9333634,8.08171171 C21.7736637,7.80984985 22.6881081,8.25471471 22.95997,9.09501502 C23.2318318,9.93531532 22.786967,10.8497598 21.9466667,11.1216216 L19.9447748,11.7889189 L21.2793694,15.767988 L23.2812613,15.1006907 C24.1215616,14.8288288 25.036006,15.2736937 25.3078679,16.113994 C25.5797297,16.9542943 25.1348649,17.8687387 24.2945646,18.1406006 Z" id="Shape"></path>
                </g>
            </g>
        </g>
    </g>
</svg>