<?xml version="1.0" encoding="UTF-8" standalone="no"?>
<svg width="30px" height="30px" viewBox="0 0 30 30" version="1.1" xmlns="http://www.w3.org/2000/svg" xmlns:xlink="http://www.w3.org/1999/xlink">
    <!-- Generator: Sketch 40.3 (33839) - http://www.bohemiancoding.com/sketch -->
    <title>TWIT</title>
    <desc>Created with Sketch.</desc>
    <defs>
        <polygon id="path-1" points="29.9996 0 0 0 0 29.9996 29.9996 29.9996 29.9996 3.55271368e-15"></polygon>
    </defs>
    <g id="Symbols" stroke="none" stroke-width="1" fill="none" fill-rule="evenodd" opacity="0.8">
        <g id="FOTTER" transform="translate(-230.000000, -189.000000)">
            <g id="TWIT" transform="translate(230.000000, 189.000000)">
                <mask id="mask-2" fill="white">
                    <use xlink:href="#path-1"></use>
                </mask>
                <g id="Clip-2"></g>
                <path d="M22.1576,11.3306 C22.1656,11.4886 22.1686,11.6466 22.1686,11.8076 C22.1686,16.6876 18.4536,22.3146 11.6616,22.3146 C9.5746,22.3146 7.6346,21.7036 5.9996,20.6556 C6.2896,20.6896 6.5836,20.7066 6.8816,20.7066 C8.6126,20.7066 10.2036,20.1176 11.4666,19.1266 C9.8516,19.0966 8.4876,18.0286 8.0186,16.5626 C8.2436,16.6056 8.4746,16.6286 8.7126,16.6286 C9.0496,16.6286 9.3766,16.5836 9.6846,16.4986 C7.9976,16.1596 6.7226,14.6666 6.7226,12.8776 L6.7226,12.8316 C7.2216,13.1086 7.7906,13.2746 8.3966,13.2926 C7.4056,12.6316 6.7536,11.4996 6.7536,10.2186 C6.7536,9.5416 6.9356,8.9076 7.2536,8.3616 C9.0736,10.5966 11.7966,12.0666 14.8646,12.2206 C14.8026,11.9506 14.7696,11.6686 14.7696,11.3786 C14.7696,9.3396 16.4226,7.6876 18.4626,7.6876 C19.5246,7.6876 20.4846,8.1356 21.1576,8.8516 C21.9986,8.6876 22.7896,8.3796 23.5036,7.9566 C23.2266,8.8196 22.6426,9.5436 21.8796,9.9986 C22.6266,9.9116 23.3386,9.7126 23.9996,9.4186 C23.5056,10.1596 22.8796,10.8096 22.1576,11.3306 L22.1576,11.3306 Z M-0.0004,29.9996 L29.9996,29.9996 L29.9996,-0.0004 L-0.0004,-0.0004 L-0.0004,29.9996 Z" id="Fill-1" fill="#FFFFFF" mask="url(#mask-2)"></path>
            </g>
        </g>
    </g>
</svg>